<?xml version="1.0" encoding="UTF-8"?>
<svg viewBox="0 0 839 1132" xmlns="http://www.w3.org/2000/svg">
 <g fill-rule="evenodd" stroke-width=".5">
  <g stroke="#fff">
   <g fill="#fff">
    <path d="m426.5 25l1.5-0.5h3l-0.2 0.3-0.3 0.2-0.3 0.2-0.2 0.3-0.2 0.3-0.3 0.2-0.3 0.2-0.2 0.3-0.2 0.3-0.3 0.2-0.3 0.2-0.2 0.3-0.2 0.3-0.3 0.2-0.3 0.2-0.2 0.3-0.2 0.3-0.3 0.2-0.3 0.2-0.2 0.3-0.2 0.3-0.3 0.2-0.3 0.2-0.2 0.3-0.2 0.3q-0.29999 0.2-5.8 5.7t-17.2 20.7q-11.8 15.3-21 32.6l-9.3 17.2-0.5 1-0.5 1-0.5 1-0.5 1 0.3 0.8q0.20001 0.7 0.40002 0.39999l0.3-0.2 0.3-0.2 0.2-0.3 0.2-0.3 0.3-0.2 0.3-0.2 0.2-0.3 0.2-0.3 0.3-0.2 0.5-1 0.5-1 12-14q12-14 22.7-24.2 10.8-10.3 21.8-17.8t40.5-13 52-7 36-0.5 16.5 1.5l3 0.5 2 0.3 2 0.2 11.5 3.8q11.5 3.7 13 4.2l1.5 0.5 1 0.5 1 0.5 1 0.5 1 0.5 1 0.5 1 0.5 0.2 0.3 0.3 0.2 0.3 0.2 0.2 0.3-1 0.5-1 0.5-1.5 0.5-1.5 0.5-1.5 0.5q-1.5 0.5-14 5t-32 14-38 22-32.7 26.2q-14.3 13.8-26 29-11.8 15.3-22 34-10.3 18.8-17.8 40.8t-11.5 45-4.5 47 0.5 36l1 12 0.3 1.5 0.2 1.5 4.8 24.5q4.7 24.5 12.7 47.5t18.3 42.8q10.2 19.7 20.7 34.7t23.5 29 59 17.5 52 3.8l6 0.2v0.5l2 0.5 2 0.5 46.2 10.3q46.3 10.2 57 24 10.8 13.7 11 14l0.3 0.2 0.3 0.2 0.2 0.3 0.2 0.3 0.3 0.2 0.3 0.2 0.2 0.3 0.2 0.3 0.3 0.2 0.3 0.2 0.2 0.3 0.2 0.3 0.3 0.2 0.3 0.2 0.2 0.3 0.2 0.3 0.3 0.2 0.3 0.2 0.2 0.3-2 0.5-2 0.5-3 0.5q-3 0.5-5.5 1t-6.5-0.5-13.8-8.3q-9.7-7.2-19-13l-9.2-5.7-1-0.5-1-0.5-1-0.5-1-0.5h-3l1 0.5 1 0.5 0.2 0.3 0.3 0.2 0.3 0.2 0.2 0.3 1 0.5 1 0.5 0.2 0.3 0.3 0.2 0.3 0.2 0.2 0.3 0.2 0.3 0.3 0.2 0.3 0.2 0.2 0.3 4.5 4.5q4.5 4.5 4.7 4.8l0.3 0.2 0.3 0.2 0.2 0.3 0.2 0.3 0.3 0.2 0.5 1 0.5 1 0.5 1 0.5 1 0.3 0.2 0.2 0.3 0.2 0.3 0.3 0.2v2l-0.3-0.2-0.2-0.3-4-0.5q-4-0.5-13.5-1.5t-26.5-1-25 2.5-7.8 9.2q0.29999 6.8 2.6 11 2.2 4.3 6.7 8.3l4.5 4 1 0.5 1 0.5 0.2 0.3 0.3 0.2 0.3 0.2 0.2 0.3 1 0.5 1 0.5 0.2 0.3 0.3 0.2 0.3 0.2 0.2 0.3-2.5 0.5-2.5 0.5-3 0.5q-3 0.5-5.5 1l-2.5 0.5-1.5 0.3-1.5 0.2-1 0.2q-1 0.29999-18 3.3t-22.2-6.3l-5.3-9.2-0.5-1-0.5-1-0.5-1-0.5-1-0.5-1-0.5-1-0.5 1.5-0.5 1.5-0.5 2-0.5 2-4.7 11.2q-4.8 11.3-10 17-5.3 5.8-10.6 8.6-5.2 2.7-10.7 3.4-5.5 0.79999-6.7 8.8-1.3 8-6.8 17t-15.2 18.8q-9.8 9.7-19.3 16.2t-9.7 6.8l-0.3 0.2-0.3 0.2-0.2 0.3-1 0.5-1 0.5-1 0.5-1 0.5-1 0.5-1 0.5-0.2 0.3-0.3 0.2-0.3 0.2-0.2 0.3h3l1.5-0.5 1.5-0.5 1.5-0.5 1.5-0.5 30-9q30-9 42.5-6.5t81.5 19.8q69 17.2 69.5 18.4 0.5 1.3 0.70001 1.6l0.3 0.2v8l-0.3 0.5-0.2 0.5-0.2 1-0.3 1-0.5 1-0.5 1-8.3 9.8q-8.2 9.7-10.7 12.2t-2.7 2.8l-0.3 0.2-0.3 0.2-0.2 0.3-0.2 0.3-0.3 0.2-0.3 0.2-0.2 0.3-0.2 0.3-0.3 0.2-0.3 0.2-0.2 0.3-0.2 0.3-0.3 0.2-0.3 0.2-0.2 0.3-0.2 0.3-0.3 0.2-0.3 0.2-0.2 0.3-0.2 0.3-0.3 0.2-0.3 0.2-0.2 0.3-0.2 0.3-0.3 0.2-0.3 1-0.2 1h-2l0.2-1 0.3-1 0.3-0.2 0.2-0.3 0.2-0.3 0.3-0.2 0.3-0.2 0.2-0.3 0.2-0.3 0.3-0.2 0.5-1 0.5-1 0.5-1 0.5-1 0.3-0.2 0.2-0.3 0.2-0.3 0.3-0.2 0.5-1q0.5-1 2-4t1.5-10.5-2.7-10.3q-2.8-2.7-17.3-3.2t-25.5 1.5-21 6.5-14.8 9.8q-4.7 5.2-5.2 9.7t1.2 6.7q1.8 2.3 7.8 5.8l6 3.5 1 0.5 1 0.5 1.5 0.5 1.5 0.5 0.2 0.3 0.3 0.2 0.3 0.2 0.2 0.3h-16.5q-16.5 0-22-1t-14.5-4.5l-9-3.5-1-0.5-1-0.5-0.2-0.3-0.3-0.2-0.3-0.2-0.2-0.3 0.2-0.3 0.3-0.2 0.5-1 0.5-1 0.3-0.2 0.2-0.3 0.2-0.3 0.3-0.2 0.5-1q0.5-1 9.8-10.2 9.2-9.3 25.7-19.3l16.5-10 1-0.5 1-0.5 1-0.5 1-0.5 1-0.5 1-0.5 1-0.5 1-0.5-9-0.5q-9-0.5-30.5-1t-35 2-33 10l-19.5 7.5-1 0.5-1 0.5-1 0.5-1 0.5-1 0.5-1 0.5-0.2 0.3-0.3 0.2v-2l0.3-0.2 0.2-0.3 0.2-0.3 0.3-0.2 0.3-0.2 0.2-0.3 0.2-0.3 0.3-0.2 0.3-0.2 0.2-0.3 0.2-0.3 0.3-0.2 0.3-0.2 0.2-0.3 0.2-0.3 0.3-0.2 0.3-0.2 0.2-0.3 0.2-0.3 0.3-0.2 0.5-1q0.5-1 3-4l2.5-3 0.3-0.2 0.2-0.3 0.2-0.3 0.3-0.2 0.3-0.2 0.2-0.3 0.2-0.3 0.3-0.2 0.3-0.2 0.2-0.3 0.2-0.3 0.3-0.2 0.3-0.2 0.2-0.3 0.2-0.3 0.3-0.2 0.3-0.2 0.2-0.3 0.2-0.3 0.3-0.2 0.3-0.2 0.2-0.3h-2l-1 0.5-1 0.5-1 0.5-1 0.5-1 0.5-1 0.5-1.5 0.5q-1.5 0.5-2.5 1t-16.5 4.5-52.5 4-43.5 2-20.5 10.5l-14 8.5-1 0.5-1 0.5-1 0.5-1 0.5-0.2 0.3-0.3 0.2-0.3 0.2-0.2 0.3-1 0.3-1 0.2 0.2-3 0.3-3 0.5-4q0.5-4 2.5-14.5t5.7-18.7q3.8-8.3 9.3-12.8t17.5-9l12-4.5 2-0.5 2-0.5 0.2-0.3 0.3-0.2 0.3-0.2 0.2-0.3-7-0.5q-7-0.5-11.5-0.79999l-4.5-0.2 0.2-1 0.3-1 0.5-1 0.5-1 0.5-1 0.5-1 0.5-1 0.5-1 0.3-0.2q0.20001-0.29999 2.4-3 2.3-2.8 10-8 7.8-5.3 19.3-8 11.5-2.8 11.7-5.8 0.29999-3 3.8-14.5t10.5-23.5 16.7-23.2l9.8-11.3 0.2-0.3 0.3-0.2 0.3-0.2 0.2-0.3 0.2-0.3 0.3-0.2 0.3-0.2 0.2-0.3 0.2-0.3 0.3-0.2 0.3-0.2 0.2-0.3 0.2-0.3 0.3-0.2 0.3-0.2 0.2-0.3 0.2-0.3 0.3-0.2 0.3-0.2 0.2-0.3 0.2-0.3 0.3-0.2v-2l-0.3 0.2-0.2 0.3-0.2 0.3-0.3 0.2-0.3 0.2-0.2 0.3-1 0.5-1 0.5-0.2 0.3-0.3 0.2-0.3 0.2-0.2 0.3-1 0.5-1 0.5-0.2 0.3-0.3 0.2-0.3 0.2-0.2 0.3-12.5 10.5q-12.5 10.5-22.3 22.8-9.7 12.2-16 22-6.2 9.7-21.4 23.4-15.3 13.8-27.3 28.8t-21 32-14 39.5-7 44-1.5 38.5 0.79999 20l0.2 3 4.2 24q4.3 24 12.8 49.5t21.2 51.7q12.8 26.3 19 37 6.3 10.8 6.8 11.8l0.5 1 0.5 1 0.5 1 0.5 1 0.5 1 0.3 0.2 0.2 0.3 0.2 0.3 0.3 0.2 0.3 0.2 0.2 0.3 0.2 0.3 0.3 0.2 0.3 1 0.2 1-1-0.2-1-0.3-0.2-0.3-0.3-0.2-0.3-0.2-0.2-0.3-0.2-0.3-0.3-0.2-0.3-0.2-0.2-0.3-1-0.5-1-0.5-0.2-0.3-0.3-0.2-0.3-0.2-0.2-0.3-1-0.5-1-0.5-0.2-0.3q-0.29999-0.19995-4.6-3-4.2-2.7-26.7-19.2t-40.3-34.2q-17.7-17.8-29.7-34.8t-20-34-13-35l-5-18-0.5-2.5-0.5-2.5v24q0 24 3 36t3.5 13.5l0.5 1.5 0.5 1 0.5 1 0.5 1.5 0.5 1.5v2l-0.3-0.2-0.2-0.3-0.2-0.3-0.3-0.2-0.3-0.2-0.2-0.3-0.2-0.3-0.3-0.2-0.3-0.2-0.2-0.3-0.2-0.3-0.3-0.2-0.3-0.2-0.2-0.3-0.2-0.3-0.3-0.2-0.3-0.2-0.2-0.3-0.2-0.3-0.3-0.2-0.3-0.2-0.2-0.3-1-0.5q-1-0.5-9-8.5t-22.8-25.7l-14.7-17.8-0.3-0.2-0.2-0.3-0.2-0.3-0.3-0.2-0.5-1-0.5-1-0.3-0.2-0.2-0.3-0.2-0.3-0.3-0.2-0.5-1-0.5-1h-0.5l-0.2-0.5q-0.3-0.5-9.8-16.5t-10-32.5 0.5-25.5 6-31 15-48l10-26 0.5-1 0.5-1 0.5-1 0.5-1 0.5-1 0.5-1v-2l-0.3 0.2-0.2 0.3-0.2 0.3-0.3 0.2-0.5 1-0.5 1-0.3 0.2-0.2 0.3-0.2 0.3-0.3 0.2-0.5 1-0.5 1-0.3 0.2-0.2 0.3-0.2 0.3-0.3 0.2-0.3 0.2-0.2 0.3-12.8 20.3q-12.7 20.2-20.2 36.7t-11.5 31-4.5 18-1 8l-0.5 4.5-0.5 2.5-0.5 2.5-0.5-1-0.5-1-0.5-2-0.5-2-0.5-1.5q-0.5-1.5-7.5-26.5l-7-25-0.5-1.5-0.5-1.5h-0.5l-0.2-2q-0.3-2-3.3-12.5t0-15.5 13.7-16.8q10.8-11.7 22-21l11.3-9.2 0.3-0.2 0.2-0.3 1-0.5 1-0.5 1-0.5 1-0.5 0.2-0.3 0.3-0.2 0.3-0.2 0.2-0.3 1-0.5 1-0.5h-4l-2.5 0.5-2.5 0.5-10 2q-10 2-12.5 2.5l-2.5 0.5-2.5 0.5-2.5 0.5-0.2 0.3-0.3 0.2-0.3 0.2-0.2 0.3-0.2 0.3-0.3 0.2-0.3 0.2-0.2 0.3-0.2 0.3-0.3 0.2-0.3 0.2-0.2 0.3-0.2 0.3-0.3 0.2-0.3 0.2-0.2 0.3-1 0.3-1 0.2 0.2-1 0.3-1 0.3-0.2 0.2-0.3 0.2-0.3 0.3-0.2 0.3-0.2 0.2-0.3 1-0.5 1-0.5 0.2-0.3 0.3-0.2 0.3-0.2 0.2-0.3 0.2-0.3 0.3-0.2 0.3-0.2 0.2-0.3 0.2-0.3 0.3-0.2 0.3-0.2 0.2-0.3 0.2-0.3 0.3-0.2 0.3-0.2 0.2-0.3 0.2-0.3 0.3-0.2 0.3-0.2 0.2-0.3 0.2-0.3 0.3-0.2 0.3-0.2q0.2-0.29999 1.7-1.8t21-18 42-32 50.5-29.5l28-14 1.5-0.5 1.5-0.5 1.5-0.5 1.5-0.5 0.2-0.3 0.3-0.2 0.3-0.2 0.2-0.3h-3l-2 0.5-2 0.5-2 0.5q-2 0.5-13 3t-42 7.5-56.5 5.5-34.5-0.5l-9-1-1-0.5-1-0.5 1-0.5 1-0.5 1-0.5 1-0.5 1.5-0.5 1.5-0.5 1-0.5q1-0.5 8-4l7-3.5 1-0.5 1-0.5 1.5-0.5 1.5-0.5 1-0.5 1-0.5 0.2-0.3 0.3-0.2 0.3-0.2 0.2-0.3h-22q-15 0-26.5-2t-27-7.7l-15.5-5.8v-0.5l-1-0.5-1-0.5-1-0.5q-1-0.5-4.8-2.8-3.7-2.2-6.7-13.2t-3-31v-20l0.5-1 0.5-1 0.3 0.2 0.2 0.3 1 0.5 1 0.5 0.2 0.3 0.3 0.2 0.3 0.2 0.2 0.3 20 11q20 11 42.5 20.5t24 10l1.5 0.5 1 0.5 1 0.5 1.5 0.5 1.5 0.5h2l-0.2-0.3-0.3-0.2-0.3-0.2-0.2-0.3-1-0.5-1-0.5-0.2-0.3-0.3-0.2-0.3-0.2-0.2-0.3-1-0.5-1-0.5-1-0.5-1-0.5-1-0.5q-1-0.5-14.5-8.5t-39-25-26.7-19.3q-1.3-2.2-5.3-19.2t-4.5-40 1-33l1.5-10 0.5-2.5 0.5-2.5 0.5-1.5 0.5-1.5 0.3 0.2 0.2 0.3 0.2 0.3 0.3 0.2 0.5 1 0.5 1 0.5 1 0.5 1 0.3 0.2 0.2 0.3 0.2 0.3 0.3 0.2 9.7 13.8q9.8 13.7 25.8 29.7t17 16.5l1 0.5 0.2 0.3 0.3 0.2 0.3 0.2 0.2 0.3 0.2 0.3 0.3 0.2 0.3 0.2 0.2 0.3 0.2 0.3 0.3 0.2 0.3 0.2 0.2 0.3 0.2 0.3 0.3 0.2 0.3 0.2 0.2 0.3 0.2 0.3 0.3 0.2 0.3 0.2 0.2 0.3 0.2 0.3 0.3 0.2v-2l-0.5-1-0.5-1-0.3-0.2-0.2-0.3-0.2-0.3-0.3-0.2-0.3-0.2-0.2-0.3-0.2-0.3-0.3-0.2-0.3-0.2-0.2-0.3-0.2-0.3-0.3-0.2-0.3-0.2-0.2-0.3-0.2-0.3-0.3-0.2-0.5-1q-0.5-1-3.2-4.2-2.8-3.3-13-18.6-10.3-15.2-16.8-30.2t-7.5-21.5 20.5-70.5l21.5-64 0.5-1.5 0.5-1.5 0.5-1.5 0.5-1.5 0.5 2 0.5 2 2.5 25.5q2.5 25.5 8 47t13.2 39.7q7.8 18.3 18 34.6 10.3 16.2 21.3 28.7t18.3 19.3q7.2 6.7 7.4 7l0.3 0.2 0.3 0.2 0.2 0.3 0.2 0.3 0.3 0.2 0.3 0.2 0.2 0.3 0.2 0.3 0.3 0.2 0.3 0.2 0.2 0.3 1 0.5 1 0.5 0.2 0.3 0.3 0.2 0.3 0.2 0.2 0.3 0.2 0.3 0.3 0.2 0.3 0.2 0.2 0.3 0.2 0.3 0.3 0.2v-2l-0.5-1-0.5-1-0.3-0.2-0.2-0.3-0.2-0.3-0.3-0.2-0.3-0.2-0.2-0.3-0.2-0.3-0.3-0.2-0.3-0.2-0.2-0.3-0.2-0.3-0.3-0.2-0.3-0.2-0.2-0.3-0.2-0.3-0.3-0.2-0.5-1q-0.5-1-4.5-6t-14.5-21.5-18.5-35-11-30.5-3.5-43.5 0.8-45.5l1.2-14 0.2-0.5q0.3-0.5 3.3-16t9-32l6-16.5 0.5-1.5 0.5-1.5 0.5-1 0.5-1 0.5-1.5 0.5-1.5 2.5 33q2.5 33 4 40.5t2 9l0.5 1.5 0.5 2 0.5 2 0.5 1.5 0.5 1.5v-21q0-16 2-30.5t7-31.5 20.5-35.5 30.5-32 33.3-25.7l18.2-12.3 1-0.5 1-0.5 1-0.5 1-0.5 0.2-0.3 0.3-0.2 0.3-0.2 0.2-0.3 1-0.3 1-0.2-0.2 1-0.3 1-0.5 1.5-0.5 1.5-0.5 1.5-0.5 1.5-8 27q-8 27-12 50.5t-4 54 0.5 35l0.5 4.5 0.5 2.5 0.5 2.5 2.5-25.5q2.5-25.5 8-49.5t15-50.5 19.8-46.3q10.2-19.7 44.7-42.7t54.5-33 21.5-10.5l1.5-0.5 1-0.5 1-0.5 1.5-0.5zm39.5 549l2 0.5 1 0.5 1 0.5 2 0.5 2 0.5 1 0.5 1 0.5-2 0.5-2 0.5-1.5 0.5-1.5 0.5-10.5 0.5q-10.5 0.5-26.5-1t-39.5 11l-23.5 12.5-1 0.5-1 0.5-1 0.5-1 0.5-1 0.5-1 0.5h-3l1-0.5 1-0.5 0.2-0.3 0.3-0.2 0.3-0.2 0.2-0.3 0.2-0.3 0.3-0.2 0.3-0.2 0.2-0.3 1-0.5 1-0.5 0.2-0.3 0.3-0.2 0.3-0.2 0.2-0.3 0.2-0.3 0.3-0.2 3.3-2q3.2-2 6.7-5.8 3.5-3.7 16.5-14.2t16.8-15.8q3.7-5.2 4.7-10.2t-2.5-21.5-8-32.5-9-46-4.2-31.8q0.20001-1.7 12 43 11.7 44.8 18.7 62.3t11.3 24.7q4.2 7.3 8.2 11.3t13 8 11 4.5zm-288.2 4.2l21.2 10.3 1 0.5 1 0.5 1 0.5 1 0.5 1 0.5 1 0.5h1l0.2-0.3 0.3-0.2v-2l-0.3-0.2-0.2-0.3-0.2-0.3-0.3-0.2-0.3-0.2-0.2-0.3-0.2-0.3-0.3-0.2-0.3-1.5-0.2-1.5h-1q-1 0-9.2-14-8.3-14-9.3-18.5t4.5-13l5.5-8.5 0.3-0.2 0.2-0.3 0.2-0.3 0.3-0.2 0.3-0.2 0.2-0.3 0.2-0.3 0.3-0.2 0.3-0.2 0.2-0.3h2l0.2 0.3 0.3 0.2 0.3 0.2 0.2 0.3 0.2 0.3 0.3 0.2 0.3 0.2 0.2 0.3 14.2 14.3q14.3 14.2 14.6 15.2 0.2 1 14.2 10.2 14 9.3 29 16.3t17.5 8 4.5 1.5l2 0.5 1 0.5 1 0.5 0.2 0.3 0.3 0.2 0.3 0.2 0.2 0.3 1.5 0.5 1.5 0.5-0.2 0.3-0.3 0.2-0.3 0.2-0.2 0.3-0.2 0.3-0.3 0.2-0.3 0.2-0.2 0.3-0.2 0.3-0.3 0.2-0.3 0.2-0.2 0.3-0.2 0.3-0.3 0.2-0.3 0.2-0.2 0.3-1 0.5-1 0.5-0.2 0.3q-0.29999 0.20001-0.59998 0.40002-0.20001 0.29999-8.2 4.3t-24.5 9-40 9-48.5 6.3l-25 2.2 0.2-1 0.3-1 0.3-0.2 0.2-0.3-0.2-0.3-0.3-0.2-0.3-0.2-0.2-0.3 0.2-0.3q0.3-0.20001 2-3l1.8-2.7 0.2-0.3 0.3-0.2 0.3-1 0.2-1-15.5-0.2q-15.5-0.29999-23-0.79999t-24.5-3-34.5-7.8q-17.5-5.2-20.7-23.2l-3.3-18v-7l0.3 0.2 0.2 0.3 2 0.5 2 0.5 0.2 0.3 0.3 0.2 0.3 0.2 0.2 0.3 25 11.5q25 11.5 44.5 18t34.5 10 19 4l4 0.5 3 0.3 3 0.2-0.2-1-0.3-1-0.3-0.2-0.2-0.3-0.2-0.3-0.3-0.2-0.3-0.2-0.2-0.3-1-0.5-1-0.5-0.2-0.3-0.3-0.2-0.3-0.2-0.2-0.3-1-0.5q-1-0.5-3.2-1.8-2.3-1.2-41.6-24-39.2-22.7-50.7-30.7t-20.7-16.3q-9.3-8.2-12.3-19.7t-4.5-23 8.5-3.5 24.5 20 37.2 28.2q22.8 16.3 25.8 17.8t7.5 4.5 12.3 7.7q7.7 4.8 29 15zm9.2-96.2q0-1 1-1t1 1v1h-1q-1 0-1-1zm-94 11.2l1 0.3 0.2 0.3 0.3 0.2 0.3 1 0.2 1-1-0.2-1-0.3-0.2-0.3-0.3-0.2-0.3-1q-0.2-1 0.8-0.79999zm30 96.8q0-1 1-1h1v2h-1q-1 0-1-1zm9.2 37.2q0.3-0.20001 0.60001 0 0.2 0.29999-0.3 0.29999t-0.3-0.29999z"/>
    <path d="m837 287.8l2 0.2v844h-442l-0.2-1-0.3-1h-0.5l-0.2-1-0.3-1-0.3-0.2-0.2-0.3-1.5-0.3q-1.5-0.19995-1-1.3999l0.5-1.3-0.2-0.3-0.3-0.2-0.3-0.2-0.2-0.3-0.2-0.3-0.3-0.2-0.3-0.2q-0.20001-0.30005-12.2-19.3t-22-37.5-17.2-34.2q-7.3-15.8-13.3-32.3t-6.7-18.7q-0.79999-2.3-2.8-11.6-2-9.2-3-9.2t-0.79999-1.5q0.29999-1.5-0.40002-2.7-0.79999-1.3-1.6-4.6-0.70001-3.2-1.4-4-0.79999-0.70001 0.20001-1.2 1-0.5 0.5-3.2-0.5-2.8-1.5-2.8t-1-1 1-1.2q1-0.29999 0-0.59998-1-0.20001-0.79999-2.2 0.29999-2-0.40002-2.8-0.79999-0.70001-1-6.4-0.29999-5.8-0.79999-7.8t-0.79999-6.5q-0.20001-4.5-1.7-4.5t-1.5-1 1-1 1-5v-5l-0.2-1.5q-0.29999-1.5-0.79999-2.5t0.5-17l1-16-0.3-0.2-0.2-0.3 0.2-0.3 0.3-0.2 0.3-0.2 0.2-0.3 0.2-0.3 0.3-0.2 0.3 0.2 0.2 0.3 0.2 0.3 0.3 0.2 0.5 1 0.5 1 0.3 0.2 0.2 0.3 0.2 0.3 0.3 0.2 6.3 6.8q6.2 6.7 8.2 7 2 0.20001 2 1.2 0 1 1 1t1 1 4.8 3.5q4.7 2.5 13 4.3 8.2 1.7 11.4 1 3.3-0.79999 3.6-0.59998l0.2 0.3 1 0.3 1 0.2 0.2-1.5 0.3-1.5 0.3-0.2 0.2-0.3 0.2-0.3 0.3-0.2 0.3-0.2q0.20001-0.29999-1-4.6-1.3-4.2-1.8-7.7t0-8 1.5-9 3.7-8.5q2.8-4 3.8-3.8 1 0.29999 5-1.7t15.5-6 12-4.7q0.5-0.79999 6.5-1.3 6-0.5 6-1.5t4.5-1 5-0.79999q0.5-0.70001 3.5-1.7 3-1 19.8-5.3 16.7-4.2 25.4-6.4 8.8-2.3 29.3-7.3l20.5-5 1.5-0.5 1.5-0.5h3l-0.2 0.3-0.3 0.2-0.3 0.2-0.2 0.3-0.2 0.3-0.3 0.2-0.3 0.2-0.2 0.3-0.2 0.3-0.3 0.2-0.3 0.2-0.2 0.3-0.2 0.3-0.3 0.2-0.3 0.2-0.2 0.3-0.2 0.3-0.3 0.2-0.3 0.2-0.2 0.3-0.2 0.3-0.3 0.2-0.3 0.2-0.2 0.3-8 9q-8 9-8.2 9.3l-0.3 0.2-0.3 0.2-0.2 0.3 0.2 0.3 0.3 0.2v3l-0.3-0.2-0.2-0.3-0.2-0.3-0.3-0.2-0.3 1-0.2 1 23 8.2q23 8.3 30.5 9.3t24 1 29-3.5 12.7-3.8l0.3-0.2 0.3 0.2 0.2 0.3h2l0.2-0.3 0.3-0.2 0.3-0.2 0.2-0.3 1-0.5 1-0.5-0.2-0.3-0.3-0.2-0.3-0.2-0.2-0.3-0.2-0.3-0.3-0.2-0.3-0.2-0.2-0.3-0.2-0.3-0.3-0.2-0.3-0.2-0.2-0.3-0.2-0.3-0.3-0.2-0.3-0.2-0.2-0.3-0.2-0.3q-0.29999-0.20001-0.59998-1.2-0.20001-1-1.2-1-1 0-1.2-1-0.29999-1-3.6-3.2-3.2-2.3-5.2-4.3t-2.5-3.3q-0.5-1.2-1.5-1.4l-1-0.3-0.2-0.3-0.3-0.2-0.3-0.2-0.2-0.3-0.2-0.3-0.3-0.2-0.3-0.2-0.2-0.3-0.2-0.3-0.3-0.2-0.3-0.2-0.2-0.3-0.2-0.3-0.3-0.2-0.3-1-0.2-1 2.5-0.2 2.5-0.3 11-2.5q11-2.5 12-2.2 1 0.20001 1.5-0.59998 0.5-0.70001 2-0.70001t3-0.5l1.5-0.5h4l1 0.5 1 0.5-0.2 0.3-0.3 0.2-0.3 0.2-0.2 0.3 0.2 0.3 0.3 0.2 0.3 1 0.2 1h-1q-1 0-1 2.8 0 2.7-1 3-1 0.20001-2.8 6.7-1.7 6.5-3.7 13t-2.5 9l-0.5 2.5v2l0.3 0.2 0.2 0.3-0.2 0.3-0.3 0.2-0.3 0.2-0.2 0.3h2l1-0.5 1-0.5 0.2-0.3 0.3-0.2 0.3-0.2 0.2-0.3 0.2-0.3 0.3-0.2 0.3 0.2 0.2 0.3h1l11.8-7.3q11.7-7.2 12-8.2 0.20001-1 4.7-2.8 4.5-1.7 6-2.7t2.5-1.3l1-0.2 1 0.2 1 0.3 1 0.5 1 0.5h1l2-0.3q2-0.20001 2-1.2 0-1 1.5-1.2 1.5-0.29999 12-7.8t12-10.2q1.5-2.8 3-3 1.5-0.29999 3-2 1.5-1.8 4-3.6 2.5-1.7 4-4.4 1.5-2.8 2.5-2.8t1.2-1q0.29999-1 1.6-1.5 1.2-0.5 2.4-2.5 1.3-2 3.8-7.5t0-9-8.2-7.3q-5.8-3.7-12.8-5.7t-7.5-2.7q-0.5-0.79999-1.5-0.79999t-1 1-1 1-1.5-1.2q-0.5-1.3-19-1.8t-21.5-0.5-5.5 0.29999q-2.5 0.20001-2.5-0.79999t-5-1.2q-5-0.29999-17.5-3.3t-15-2.7q-2.5 0.20001-2.5-0.79999t-9.5-3.2q-9.5-2.3-14.5-2.6-5-0.20001-6-1.4-1-1.3-12-4.8l-11-3.5-1.5-0.5-1.5-0.5-1.5-0.5-1.5-0.5-0.2-0.3-0.3-0.2-0.3-0.2-0.2-0.3 1-0.5 1-0.5 1-0.5 1-0.5 0.2-0.3 0.3-0.2 0.3-0.2 0.2-0.3 2-1q2-1 8-3.3 6-2.2 7-3.4 1-1.3 21-10.8t28.5-13 22.5-6.5 29.8-3.7q15.7-0.79999 16 0.20001 0.20001 1 3.2 1.2 3 0.29999 5.5 0.79999l2.5 0.5 1.5 0.5 1.5 0.5-0.2 0.3-0.3 0.2-0.5 1-0.5 1-3 6q-3 6-3 11v5l0.3 0.2 0.2 0.3 1 0.5 1 0.5 0.2 0.3 0.3 0.2 0.3-0.2 0.2-0.3 0.2-0.3 0.3-0.2 0.3 0.2 0.2 0.3h2l1-0.5q1-0.5 6-2t14.8-5.8q9.7-4.2 10-5.2 0.20001-1 4.7-2.8 4.5-1.7 5.5-2.2l1-0.5 0.2-0.3 0.3-0.2 0.3-0.2 0.2-0.3 0.2-0.3 0.3-0.2 0.3-0.2 0.2-0.3 1-0.5q1-0.5 1-0.79999v-0.20001h0.20001q0.29999 0 0.59998-0.5l0.2-0.5h0.20001q0.29999 0 2.6-1.5 2.2-1.5 2.4-2.5 0.29999-1 1.6-1.5 1.2-0.5 5.4-7 4.3-6.5 6.3-12.5t0-11.5-4.3-8.3q-2.2-2.7-3-4-0.70001-1.2-3.7-5.2t-5.3-6q-2.2-2-3.4-4-1.3-2-2.6-3-1.2-1-1.4-2-0.29999-1-5.3-6.5t-8.7-9q-3.8-3.5-4-4.5-0.29999-1-2.6-3.2-2.2-2.3-4.2-6.6-2-4.2-3-4.2t-2-2.5-2-2.5-1.2-1q-0.29999-1-3.8-4t-8.2-4.8q-4.8-1.7-10.3-2.2t-9-0.79999q-3.5-0.20001-3.5-1.2 0-1-1-0.79999-1 0.29999-13-2.2t-17-1.8q-5 0.79999-5.2-0.20001-0.29999-1-1.6-1.5-1.2-0.5-1.4 0.5-0.29999 1-0.79999 0t-1.8-1.2q-1.2-0.29999-5.2-0.79999t-5-1-3-1-2.5-1.2q-0.5-0.79999-2-0.59998-1.5 0.29999-2.5 1l-1 0.8-0.5-0.2q-0.5-0.29999-0.5-0.59998v-0.40002q0-0.29999-5-1.3t-5.5-1.7q-0.5-0.79999-3.5-1-3-0.29999-3.5 0.40002-0.5 0.79999-1.5 0.79999t-1.2-1.5q-0.29999-1.5-1-0.70001-0.79999 0.70001-1.3 0-0.5-0.79999-5-1.6-4.5-0.70001-8.5-1.7-4-1-6-4t-3.5-6.7q-1.5-3.8-2.5-3.8t-2.2-3q-1.3-3-3-4.5-1.8-1.5-1.3-4t-1-2.5-1.3-1q0.29999-1-1.2-5.5t-2-4-0.79999-12q-0.20001-12.5-1.2-12.5-1 0 0.5-7t3-7 1.5-2 2-2.2q2-0.29999 1.5-0.79999t0.70001-2.8q1.3-2.2 4-7.7 2.8-5.5 3.8-5.7 1-0.29999 1-1.3t0.79999-3.3q0.70001-2.2 1.4-2.4 0.79999-0.29999 0.79999-2 0-1.8 1.5-1.8t1.5-1 1-1.2q1-0.29999 2.8-3 1.7-2.8 2-4.8 0.20001-2 2.2-2.5t1.8-1.5q-0.29999-1 0.40002-1.8 0.79999-0.70001 1-3 0.29999-2.2 1.6-2.4 1.2-0.29999 1.7-1.6 0.5-1.2 2.5-1.7t2.2-1.5q0.29999-1 1.6-1.5 1.2-0.5 3.7-5t3.5-4.7q1-0.29999 1.5-1.6 0.5-1.2 2-1.2t2.5-2.5 2-2.5 1-1 2.8-3q2.7-2 2-2.5-0.79999-0.5-0.79999-1.5t2.5-0.5 2.5-0.5 1-1.2q1-0.29999 2.8-3.6 1.7-3.2 3-3 1.2 0.29999 1.7-2 0.5-2.2 2-2.2t1.5-1 3-2.8q3-1.7 6-3.2t3.8-3.8q0.70001-2.2 3-2.2 2.2 0 2.2-1t4-3 4-3 3-1.8q3-0.70001 4-2.4 1-1.8 2-1.6 1 0.29999 6.5-2.7t6.5-4.3q1-1.2 4.5-2.4 3.5-1.3 4-3 0.5-1.8 2.5-1.6 2 0.29999 2.5-1 0.5-1.2 1.5-1 1 0.29999 2.5-0.20001t4.3-2.8q2.7-2.2 4.4-1.7 1.8 0.5 2-1 0.29999-1.5 5-2.3 4.8-0.70001 6.3-2.4 1.5-1.8 4-1.6 2.5 0.29999 3.3-2 0.70001-2.2 1.4-1 0.79999 1.3 2.8 0.29999t12-3.7q10-2.8 10.5-4.3l0.5-1.5 1.5 1q1.5 1 1.5 0t3.5-1.2q3.5-0.29999 11.5-2.3t10-3 2.5-1.7q0.5-0.79999 8-1 7.5-0.29999 13.7-1.6 6.3-1.2 6.6-1.4 0.20001-0.29999 2.7-0.59998l2.5-0.2 1.8-0.5q1.7-0.5 1.4-1.5-0.20001-1 0.79999-1t2 1.2q1 1.3 1.5 1.3t2.5 0.29999zm-273.8 178q-0.20001-0.29999 0-0.59998 0.29999-0.20001 0.29999 0.29999t-0.29999 0.29999zm69 383.4l0.3-0.2 0.3 0.2q0.20001 0.29999-0.29999 0.29999h-0.5l0.2-0.3zm-268 35q0.29999-0.20001 0.59998 0 0.20001 0.29999-0.29999 0.29999t-0.29999-0.29999z"/>
    <path d="m449 0.2v-0.2h390v288l-2-0.2q-2-0.29999-2.5-0.29999t-4 0.29999l-3.5 0.2-0.2-1.5-0.3-1.5-0.3-1-0.2-1 1-0.2 1-0.3-1-0.5-1-0.5-0.2-0.3q-0.29999-0.20001-2.6-2-2.2-1.7-2.2-3.4 0-1.8-1-1.8t-1-1-1.8-2q-1.7-1-4-1.8-2.2-0.70001-4.7-1.7-2.5-1-3.3-2.7-0.70001-1.8-3.4-1.6-2.8 0.29999-4.8-1.4-2-1.8-2.2-2.8-0.29999-1-2-2-1.8-1-2 0-0.29999 1-0.59998-0.5-0.20001-1.5-4.7-1.7-4.5-0.3-7-1-2.5-0.8-2.3-1.8 0.29999-1-0.40002-1.8-0.79999-0.7-1.3 0-0.5 0.8-1.5 0.8t-1-1.5-2.5-1.3q-2.5 0.3-3.5-0.2t-1.8-1.2q-0.70001-0.8-1.2 0.7-0.5 1.5-2.8 0.7-2.2-0.7-1.7-2 0.5-1.2-1.5-0.39999-2 0.7-2.5-0.60001-0.5-1.2-2.5-1.2t-2.2 1q-0.29999 1-1.6 0.5-1.2-0.5-1.2-1.5t-1-0.8q-1 0.3-1.5-0.39999-0.5-0.8-1.7-1.3-1.3-0.5-3.6-1-2.2-0.5-2.2 0.5t-1.8 0.5q-1.7-0.5-4-1-2.2-0.5-2.2-1.5t-2.2-0.5q-2.3 0.5-4.6 1-2.2 0.5-2-0.5 0.29999-1-3-2-3.2-1-3.2 0.5t-4 0-4.2-0.5q-0.29999 1-6-1.2-5.8-2.3-9.8-2.8t-6-1-4.5 0.2q-2.5 0.8-2.5-0.2t-5-0.2q-5 0.7-5.8 1.4-0.70001 0.8-5 2-4.2 1.3-4.7 2-0.5 0.8-1.5 0.60001-1-0.3-1.8 0.39999-0.70001 0.8-2.2 0.8t-2.2 2q-0.79999 2-2.8 1.8-2-0.3-2.8 0.39999-0.70001 0.8-1-0.2-0.20001-1-2.2-0.5t-2.2 1.5q-0.29999 1-1.6 1.2-1.2 0.3-4.7 1-3.5 0.8-3.5 1.8t-2 1.5-2 1.5-1.5 0.2q-1.5-0.7-3.3 1.6l-1.7 2.2-0.3-0.2-0.2-0.3-0.2-0.3-0.3-0.2-0.3 1-0.2 1h-2l0.2-1 0.3-1 0.3-0.2 0.2-0.3-1-0.5-1-0.5-0.2-0.3q-0.29999-0.2-1.3-4.2l-1-4-0.3-0.2-0.2-0.3-0.2-0.3-0.3-0.2-0.3 0.2-0.2 0.3-0.2 0.3-0.3 0.2-0.3 0.2q-0.20001 0.3-4.7 1.3t-4.3 2.3q0.29999 1.2-0.40002 0.39999-0.79999-0.7-1.3 0-0.5 0.8-4 2.3t-3.5 0.5-1-1-1.2 2q-0.29999 2-3 2.2-2.8 0.3-3.6-0.39999-0.70001-0.8-2.4-0.3l-1.8 0.5 0.5 0.8q0.5 0.7 1.5 0.39999 1-0.2 1 0.8v1l-1 0.2-1 0.3h-2q-2 0-1-0.29999 1-0.20001 1-1.2 0-1-3-0.5t-2.8 2.5q0.29999 2-1 1.2-1.2-0.70001-2.4 0-1.3 0.79999-5 1.6-3.8 0.70001-2.8 1.2 1 0.5-1 1t-5.2-0.20001q-3.3-0.79999-2.6-1.6 0.79999-0.70001 0-2-0.70001-1.2-1-0.20001-0.20001 1-4.7-0.79999-4.5-1.7-8.3-1-3.7 0.79999-5.4 0.79999-1.8 0-1.8 1t-2.5 0.79999q-2.5-0.29999-3.7 1-1.3 1.2-2 1.7-0.79999 0.5-1-1-0.29999-1.5-7 0-6.8 1.5-7 3-0.29999 1.5-0.79999 0.5t-1.8-0.79999q-1.2 0.29999-4.7 1.3t-4.5 0.5-2.5 0.5-2.3 1.7q-0.70001 0.79999-1-0.20001-0.20001-1-1.2-0.79999-1 0.29999-1.5 1.6-0.5 1.2-3.5 0.20001-3-1-3.5 0.5l-0.5 1.5v-0.5l-1-0.3-1-0.2v2l-1 0.2-1 0.3-0.2 0.3-0.3 0.2-0.3 0.2-0.2 0.3-0.2 0.3q-0.29999 0.20001-0.59998 0-0.20001-0.29999-6.2 0.70001t-5.5 2.3q0.5 1.2-0.5 1.2t-1.2-1q-0.29999-1-0.59998 0.5-0.20001 1.5-3.2 1.7-3 0.29999-4.8 2-1.7 1.8-3.4 2-1.8 0.29999-3.6 1-1.7 0.79999-4 1.6-2.2 0.70001-6.2 3l-4 2.2v2h-4l0.2-1 0.3-1v-1l-0.3-1-0.2-1h2l0.2-7q0.29999-7 1.3-13.5t1.5-7.5 4.5-15 10.3-29.8q6.2-15.7 15.7-31.2t19.3-27.8q9.7-12.2 23.4-25.4 13.8-13.3 34.3-27.8t24.5-16.2q4-1.8 4-2.8t16.8-9q16.7-8 17-9 0.20001-1 5-3 4.7-2 7-2.8 2.2-0.7 12-4.4 9.7-3.8 13-5 3.2-1.3 5.7-2.3t3.3-1.7q0.70001-0.8 1-0.6l0.2 0.3h2l1.5-0.3 1.5-0.2-0.2-1-0.3-1-0.3-0.2-0.2-0.3-0.2-0.3-0.3-0.2-0.3-0.2-0.2-0.3-1.5-0.3q-1.5-0.2-2.3-2.2-0.70001-2-5-3.5-4.2-1.5-4.2-2.5t-4.5-2.8q-4.5-1.7-6-2.2t-3-0.2q-1.5 0.2-1.5-0.8t-5.5-2.8q-5.5-1.7-7-2.2t-4-0.8q-2.5-0.2-2.5-1.2t-4-1.8q-4-0.7-5.5-0.4l-1.5 0.2v-0.2q0-0.3-2.5-1.3t-11-2.5-12-2-4.5 0-1.8-0.2q-0.70001-0.8-3.4-1.3-2.8-0.5-3.3 0.7-0.5 1.3-1 0-0.5-1.2-6-1.4-5.5-0.3-24 0.7t-36 3.5-25 4l-7.5 1.5-0.2-0.3q-0.29999-0.2-0.79999-0.7t-2-7l-1.5-6.5-0.3-2q-0.20001-2-1.2-2.5l-1-0.5 1-0.2q1-0.3 1-0.6zm250.5 234q-1.5-0.7 0-1 1.5-0.2 1.5 0.8t-1.5 0.2zm-54.3 7.6q-0.20001-0.3 0-0.60001 0.29999-0.2 0.29999 0.3t-0.29999 0.3zm-32 5q-0.20001-0.3 0-0.60001 0.29999-0.2 0.29999 0.3t-0.29999 0.3zm-28 5q-0.20001-0.3 0-0.60001 0.29999-0.2 0.29999 0.3t-0.29999 0.3zm214.8 10.2q0-1 1-1t1 1-1 1-1-1zm31 23q1 0 1 1t-1 1-1-1 1-1z"/>
    <path d="m0 800v-332l3.8 30q3.7 30 0.7 30t-2.5 12.5 1.5 24.5 2.5 26.5 2 20.5 1.8 8.2q1.2 2.3 8.2 5.3t8.5 3.3l1.5 0.2v0.5l0.2 0.3 0.3 0.2 0.3 0.2 0.2 0.3 1 0.5 1 0.5 14 5q14 5 15 4.7 1-0.20001 1 0.79999t2 1.2q2 0.29999 4.5 0.29999h2.5l0.2-0.3 0.3-0.2 0.3 0.2 0.2 0.3 0.2 0.3 0.3 0.2 0.3 0.2 0.2 0.3 0.2 0.3 0.3 0.2 0.3 0.2 0.2 0.3-0.2 0.3-0.3 0.2-0.3 0.2-0.2 0.3-0.2 0.3-0.3 0.2-0.3 0.2-0.2 0.3-0.8 0.7q-0.7 0.79999-2.2 2.3t-1.8 1.7l-0.2 0.3-0.2 0.3-0.3 0.2-0.5 1-0.5 1-0.3 0.2-0.2 0.3 2 0.5 2 0.5 1 0.5 1 0.5 2 0.3q2 0.20001 2.5 1 0.5 0.70001 9.3 1.4 8.7 0.79999 9 1.8 0.2 1 4 1 3.7 0 9.2 0.5t21.8 0.70001q16.2 0.29999 24.2 0l8-0.2-0.2 1-0.3 1-0.3 0.2-0.2 0.3-1 0.5-1 0.5-1 0.3-1 0.2v1.5q0 1.5 1 1.7l1 0.3 0.2 0.3 0.3 0.2 0.3 0.2 0.2 0.3-0.2 0.3-0.3 0.2-0.3 0.2-0.2 0.3-2-0.3q-2-0.20001-2-1.2 0-1-1-1t-0.2 2q0.7 2-2 3-2.8 1-2.8 2.5t-2.5 3.3q-2.5 1.7-4.5 2-2 0.20001-4.5 3-2.5 2.7-3.5 3-1 0.20001-1.5 1.4-0.5 1.3-1.5 1.6-1 0.20001-1 1.2 0 1-1.5 1t-1.5 1.5-2.8 2.5q-2.7 1-3.4 3-0.8 2-1.8 2t-1 1.5-3 1.7q-3 0.29999-1.5 0.59998 1.5 0.20001 1.5 1.2 0 1-1.5 1t-3.5 2.8q-2 2.7-5 4.2t-3.2 3.2q-0.3 1.8-5.3 6.3t-6 6-1.5 2.5-0.8 1.2l-0.2 0.3-1 0.5-1 0.5 0.2 0.3 0.3 0.2 0.3 0.2 0.2 0.3 2 1.7q2 1.8 2.5 3.6 0.5 1.7 2 1.2t3.7 0.79999q2.3 1.2 2.6 2.2 0.2 1 1.2 1.2l1 0.3-0.2 0.3-0.3 0.2-0.3 0.2q-0.2 0.29999 0 0.59998l0.3 0.2-2 3.5q-2 3.5-3.7 6.5-1.8 3-3.6 4-1.7 1-2 2.5-0.2 1.5-1.2 1.5t-1.5 1.8q-0.5 1.7-1.5 2-1 0.20001-2.5 3-1.5 2.7-2.7 4.4-1.3 1.8-2 4-0.8 2.3 0 3 0.7 0.79999 3.2 7.3t3.8 10.3q1.2 3.7 1.4 5.4 0.3 1.8 0.60001 2.3l0.2 0.5-0.5 0.2q-0.5 0.29999 0 0.59998l0.5 0.2v0.20001q0 0.29999 0.5 0.59998l0.5 0.2v0.20001q0 0.29999 0.5 0.59998l0.5 0.2-0.5 0.8q-0.5 0.70001-0.3 1l0.3 0.2 0.3 0.2 0.2 0.3-0.2 0.3-0.3 0.2-0.3 0.2-0.2 0.3 0.2 0.3 0.3 0.2 0.3 0.2 0.2 0.3-0.2 0.3-0.3 0.2 0.7 0.5q0.8 0.5 1.8 4.3 1 3.7 2 6.7t1 4.7q0 1.8 1 1.8t2 5.5-1 5.7q-2 0.29999-0.5 0.59998 1.5 0.20001 1.5 1.2 0 1-0.8 1.5-0.7 0.5 2.3 11t3.5 12.5 3.5 11.5 3.3 8.5q0.2-1 1.4 0 1.3 1 1.3 2.5v1.5l0.3 0.2 0.2 0.3 1 0.5 1 0.5 0.2 0.3 0.3 0.2 0.3-1 0.2-1 1 0.2 1 0.3 0.2 0.3 0.3 0.2 0.3 0.2 0.2 0.3 0.2 0.3 0.3 0.2 0.3 0.2 0.2 0.3h2l-0.2-0.3-0.3-0.2-0.5-2q-0.5-2-0.8-2.2-0.2-0.29999-0.39999-3l-0.3-2.8 0.3-0.2 0.2-0.3 0.2-0.3 0.3-0.2 0.5-1 0.5-1 0.3-0.2 0.2-0.3 0.2-0.3 0.3-0.2 0.3-0.2 0.2-0.3 0.2-0.3 0.3-0.2 0.3-0.2 0.2-0.3 0.2-0.3 0.3-0.2 0.3-0.2 0.2-0.3 0.2-0.3 0.3-0.2 0.5 1 0.5 1 0.3 0.2 0.2 0.3-0.2 0.3-0.3 0.2-0.5 2-0.5 2 0.5 3q0.5 3 1.2 5 0.8 2 1.8 2t1 1 1 1 1 1-0.8 1.5q-0.7 0.5-0.2 1.5t0.8 1.8q0.2 0.70001 2.2 0.40002 2-0.20001 0.8 1.8-1.3 2 1 3.5 2.2 1.5 4 7 1.7 5.5 2 5.5h1.2q1 0 1 1.5t1 1.7l1 0.3-0.2 0.3-0.3 0.2 0.7 2.2q0.8 2.3 2.3 2.6 1.5 0.20001 1.5 2.4 0 2.3 5.5 9 5.5 6.8 4.7 7.3-0.7 0.5 1 0.5 1.8 0 3.3 3.8 1.5 3.7 2.3 3.4 0.7-0.20001 2 2 1.2 2.3 2 3 0.7 0.79999 2.7 2.8t2.3 3.2q0.2 1.3 2.4 3 2.3 1.8 3 3.8 0.8 2 2.3 2t2 1.2q0.5 1.3 2.7 2 2.3 0.79999 2 2.8-0.2 2 1.8 2t2 1 0.8 1.5q0.7 0.5 1.4 2 0.8 1.5 2 2 1.3 0.5 3.6 2.7 2.2 2.3 4.2 3.6 2 1.2 2.5 2.4 0.5 1.3 2.7 2.6 2.3 1.2 2.6 2.2 0.2 1 1.7 1t1.5 1.5 2.8 3q2.7 1.5 3 2.5 0.2 1 3.2 1t3.2 1.5l0.3 1.5 0.3 0.2 0.2 0.3h1l0.2-0.3 0.3-0.2 0.5-1q0.5-1 1.5-3.5l1-2.5 0.5-1.5 0.5-1.5 0.5 1 0.5 1 0.3 0.2 0.2 0.3 0.2 0.3 0.3 0.2 0.3 0.2 0.2 0.3 0.5 1.3q0.5 1.2 1.5 1.2t3.2 3q2.3 3 3 3.8 0.8 0.69995 2.6 3 1.7 2.2 3 4 1.2 1.7 2.4 2.3999 1.3 0.80005 1.8 1.8 0.5 1 14.2 14.8 13.8 13.7 15.3 14 1.5 0.19995 2 1.3999 0.5 1.3 1.5 1.6001 1 0.19995 2 2 1 1.7 2.5 2 1.5 0.19995 2 1.3999 0.5 1.3 1.5 1.6001 1 0.19995 1 1.2t5.8 4.5q5.7 3.5 6 4.5 0.20001 1 4.2 3.2 4 2.3 20.5 12.3t32.5 16.5 17.5 7 3.5 1l2 0.5 1 0.5 1 0.5 1 0.5 1 0.5 1 0.5 1 0.5h1l0.2-0.3 0.3-0.2h1l0.3 1 0.2 1h-397v-332z"/>
    <path d="m0 219v-219h449v0.2q0 0.3-1 0.6l-1 0.2-0.5 0.2q-0.5 0.3-5 1.3t-20.5 6-30 12-15.8 7.7q-1.7 0.8-4 1.3-2.2 0.5-2.2 2t-2 1.7q-2 0.3-10.5 5-8.5 4.8-8.5 5.8t-3 2.2q-3 1.3-5 3.6-2 2.2-5 3.2t-3 2.5-3.5 3-3.5 3-2 1.5-2.2 1q-0.29999 1-7.6 6.8-7.2 5.7-10.7 8.2l-3.5 2.5-0.2 0.3-0.3 0.2-0.3 0.2-0.2 0.3-0.2 0.3-0.3 0.2-0.3 0.2-0.2 0.3-0.2 0.3-0.3 0.2-0.3-0.2-0.2-0.3-0.2-0.3-0.3-0.2-0.5-2q-0.5-2-0.79999-4l-0.2-2-2 0.2q-2 0.3-20.5 9.6-18.5 9.2-18.5 10.2t-1.2 1.5q-1.3 0.5-2.3 0.5t-2.5 2.5-3.2 2.7q-1.8 0.3-3.3 1.3t-3.5 1.7q-2 0.8-2 1.8t-1 1-1.2 1q-0.3 1-2 1-1.8 0-1.8 1t-4 3.5-4 4-1 1.3q-1-0.3-1.5 0.39999-0.5 0.8-1.5 1-1 0.3-6.2 5.6-5.3 5.2-5.8 4.7t-1.5 1.5-2.7 2.8q-1.8 0.7-11 11-9.3 10.2-12 12.7-2.8 2.5-2.6 3.5 0.3 1-1 2.2-1.2 1.3-2 2-0.7 0.8-5.4 7.6-4.8 6.7-6.3 9.4l-1.5 2.8h-3l-0.2-1q-0.3-1-2.6-2-2.2-1-3-2.5-0.7-1.5-2.4-2.5l-1.8-1-0.5 1.2q-0.5 1.3-3.3 3.6-2.7 2.2-3.4 4.7-0.8 2.5-1.8 2.5t-2.8 5q-1.7 5-3.2 7.5t-2.5 5-2.5 7-4.5 13-4.3 16q-1.2 7.5-2.2 7.5t-1 2 1 2 1 1-1.8 1.5q-1.7 0.5-2.2 4.5t-0.5 4.5-0.3 2l-0.2 1.5h-0.2q-0.3 0-0.60001 0.5l-0.2 0.5v1l-0.2 1.5-0.3 1.5-0.5 3.5-0.5 3.5-0.5-2.5-0.5-2.5-0.5-3.5q-0.5-3.5-1.5-8.5t-2.3-12.5q-1.2-7.5-2.2-7.5t-0.8-1.5q0.3-1.5-1-7.3-1.2-5.7-1.4-7.4l-0.3-1.8-0.3-0.2-0.2-0.3-1-0.3-1-0.2-0.2-1.5-0.3-1.5-0.3 0.2-0.2 0.3-2 0.3-2 0.2-0.2 1-0.3 1-0.3 0.2-0.2 0.3-1.2 2.3q-1.3 2.2-5.3 9.2t-11.5 22.5-15.5 37-20.7 63.5q-12.8 42-21.8 42.2-9 0.29999-10.2 9-1.3 8.8-1.8 17.3l-0.5 8.5h-0.5v-219z"/>
    <path d="m796 275l1 0.5 1.5 0.5 1.5 0.5 1.5 0.5 1.5 0.5 1 0.5 1 0.5-1.5 0.5-1.5 0.5-2 0.5-2 0.5-2.5 0.5q-2.5 0.5-19 4.5l-16.5 4-2 0.5-2 0.5-0.2 0.3-0.3 0.2h-0.5l-1.5 0.2q-1.5 0.29999-25 8.3t-44.5 18-39 22-32.2 25.3q-14.3 13.2-27.8 30.7t-28 43-15 38.5 2 25.5 8.5 27l6 14.5 0.5 1 0.5 1 0.5 1 0.5 1 0.3 0.2 0.2 0.3h-5l-6-0.5q-6-0.5-25-2.5t-25.5-9.5-19-24-23.7-36.8q-11.3-20.2-18.8-40.2t-1.5-34.5 14.5-29l8.5-14.5 0.5-1 0.5-1 0.3-0.5 0.2-0.5h0.5l0.3-0.2 0.2-0.3 0.2-0.3 0.3-0.2 0.5-1 0.5-1 0.3-0.2 0.2-0.3 0.2-0.3 0.3-0.2 12.3-13.8q12.2-13.7 27.2-25.2t33-21 32-14.5 16-5.5l2-0.5 1.5-0.5 1.5-0.5 1.5-0.5 1.5-0.5h2l-0.2 0.3-0.3 0.2-0.5 1-0.5 1-0.5 1-0.5 1-0.3 0.2-0.2 0.3-0.2 0.3-0.3 0.2-0.5 1q-0.5 1-7.2 11.8l-6.8 10.7-0.2 0.3-0.3 0.2-0.5 1-0.5 1-0.3 0.2-0.2 0.3-0.2 0.3-0.3 0.2-0.5 1-0.5 1-0.3 0.2-0.2 0.3-0.2 0.3-0.3 0.2-0.3 0.2-0.2 0.3h2l0.2-0.3 0.3-0.2 0.3-0.2 0.2-0.3 0.2-0.3 0.3-0.2 0.3-0.2 0.2-0.3 0.2-0.3 0.3-0.2 0.3-0.2 0.2-0.3 0.2-0.3 0.3-0.2 0.3-0.2 0.2-0.3 0.2-0.3 0.3-0.2 0.3-0.2 0.2-0.3 0.2-0.3 0.3-0.2 11.3-9.8q11.2-9.7 27.2-18.7t27.5-13.5 33.5-4.5 45 4 47 11.5 25 8z"/>
   </g>
   <path d="m177.8 578.2l21.2 10.3 1 0.5 1 0.5 1 0.5 1 0.5 1 0.5 1 0.5h1l0.2-0.3 0.3-0.2v-2l-0.3-0.2-0.2-0.3-0.2-0.3-0.3-0.2-0.3-0.2-0.2-0.3-0.2-0.3-0.3-0.2-0.3-1.5-0.2-1.5h-1q-1 0-9.2-14-8.3-14-9.3-18.5t4.5-13l5.5-8.5 0.3-0.2 0.2-0.3 0.2-0.3 0.3-0.2 0.3-0.2 0.2-0.3 0.2-0.3 0.3-0.2 0.3-0.2 0.2-0.3h2l0.2 0.3 0.3 0.2 0.3 0.2 0.2 0.3 0.2 0.3 0.3 0.2 0.3 0.2 0.2 0.3 14.2 14.3q14.3 14.2 14.6 15.2 0.2 1 14.2 10.2 14 9.3 29 16.3t17.5 8 4.5 1.5l2 0.5 1 0.5 1 0.5 0.2 0.3 0.3 0.2 0.3 0.2 0.2 0.3 1.5 0.5 1.5 0.5-0.2 0.3-0.3 0.2-0.3 0.2-0.2 0.3-0.2 0.3-0.3 0.2-0.3 0.2-0.2 0.3-0.2 0.3-0.3 0.2-0.3 0.2-0.2 0.3-0.2 0.3-0.3 0.2-0.3 0.2-0.2 0.3-1 0.5-1 0.5-0.2 0.3q-0.29999 0.20001-0.59998 0.40002-0.20001 0.29999-8.2 4.3t-24.5 9-40 9-48.5 6.3l-25 2.2 0.2-1 0.3-1 0.3-0.2 0.2-0.3-0.2-0.3-0.3-0.2-0.3-0.2-0.2-0.3 0.2-0.3q0.3-0.20001 2-3l1.8-2.7 0.2-0.3 0.3-0.2 0.3-1 0.2-1-15.5-0.2q-15.5-0.29999-23-0.79999t-24.5-3-34.5-7.8q-17.5-5.2-20.7-23.2l-3.3-18v-7l0.3 0.2 0.2 0.3 2 0.5 2 0.5 0.2 0.3 0.3 0.2 0.3 0.2 0.2 0.3 25 11.5q25 11.5 44.5 18t34.5 10 19 4l4 0.5 3 0.3 3 0.2-0.2-1-0.3-1-0.3-0.2-0.2-0.3-0.2-0.3-0.3-0.2-0.3-0.2-0.2-0.3-1-0.5-1-0.5-0.2-0.3-0.3-0.2-0.3-0.2-0.2-0.3-1-0.5q-1-0.5-3.2-1.8-2.3-1.2-41.6-24-39.2-22.7-50.7-30.7t-20.7-16.3q-9.3-8.2-12.3-19.7t-4.5-23 8.5-3.5 24.5 20 37.2 28.2q22.8 16.3 25.8 17.8t7.5 4.5 12.3 7.7q7.7 4.8 29 15z"/>
   <g fill="#fff">
    <path d="m742.8 674.8l-0.3 0.2-0.3 0.2-0.2 0.3v0.5l-0.5 0.2q-0.5 0.29999-3.5 2.3l-3 2-1 0.5-1 0.5-1.5 0.5-1.5 0.5h-4l0.2-0.3 0.3-0.2 0.3-0.2 0.2-0.3 0.2-0.3 0.3-0.2 0.3-0.2 0.2-0.3 0.2-0.3 0.3-0.2 0.3-0.2 0.2-0.3 0.2-0.3 0.3-0.2 0.5-1q0.5-1 2.5-5.5l2-4.5v-3l-0.3-0.2-0.2-0.3-1-0.5-1-0.5-2-0.5q-2-0.5-9-2t-25-2-29.5 0.5-40.5 11.5-54.5 22.5-47 25l-21.5 13-0.2 0.3-0.3 0.2-0.3 0.2q-0.20001 0.29999-0.40002 0.59998l-0.3 0.2-0.3 0.2-0.2 0.3-1 0.5-1 0.5-0.2 0.3-0.3 0.2-0.3 0.2-0.2 0.3-0.2 0.3-0.3 0.2-0.3 0.2-0.2 0.3-0.2 0.3-0.3 0.2-0.3 0.2-0.2 0.3-1 0.3-1 0.2 0.2-1 0.3-1 0.3-0.2 0.2-0.3 0.2-0.3 0.3-0.2 0.3-0.2 0.2-0.3 0.2-0.3 0.3-0.2 0.3-0.2 0.2-0.3 0.2-0.3 0.3-0.2 0.3-0.2 0.2-0.3 0.2-0.3 0.3-0.2 0.3-0.2 0.2-0.3 0.2-0.3 0.3-0.2 0.3-0.2q0.20001-0.29999 7.2-9.8t13-21.2q6-11.8 8.5-12.6 2.5-0.70001 10-6.7t13.7-15.7l6.3-9.8 0.5-1.5 0.5-1.5 0.5-1 0.5-1 0.3 0.2 0.2 0.3 0.2 0.3 0.3 0.2 0.5 1 0.5 1 4.3 6.8q4.2 6.7 24.4 2 20.3-4.8 20.6-4.8h0.20001l2-0.2 2-0.3 8-2q8-2 10-2.5l2-0.5 2-0.3 2-0.2v-2l-1-0.2-1-0.3-0.2-0.3-0.3-0.2-0.3-0.2-0.2-0.3-1-0.5-1-0.5-0.2-0.3q-0.29999-0.20001-7.6-6.4-7.2-6.3-10-12.6l-2.7-6.2-0.3-1-0.2-1 1-0.2 1-0.3 1-0.5 1-0.5 5.5-1.5q5.5-1.5 29-1t26.7 1.2q3.3 0.79999 3.8 6.3t5.8 9.7q5.2 4.3 10.7 4.3t8.7-3.3q3.3-3.2 4.6-5.7 1.2-2.5 12.7-4.3 11.5-1.7 18.3 5 6.7 6.8 11.7 16.8t-2.7 19.2q-7.8 9.3-8.8 9.8t-1.2 0.79999z"/>
    <path d="m526 278.5h5l-0.2 0.3-0.3 0.2-0.3 0.2-0.2 0.3-0.2 0.3-0.3 0.2-0.3 0.2-0.2 0.3-1 0.5-1 0.5-1 0.5-1 0.5-0.2 0.3-0.3 0.2-0.3 0.2-0.2 0.3-1 0.5q-1 0.5-5 3t-18 14-28 27.5l-14 16-0.2 0.3-0.3 0.2-0.5 1-0.5 1-0.3 0.2-0.2 0.3v0.5h-0.5l-0.5 1-0.5 1-0.3 0.2-0.2 0.3-0.2 0.3-0.3 0.2-0.3 0.2-0.2 0.3-0.2 0.3-0.3 0.2-10.3 16.8q-10.2 16.7-10.4 17l-0.3 0.2-0.5 1-0.5 1-0.5 1-0.5 1-0.5 1-0.5 1-0.3 0.2-0.2 0.3-0.2 0.3-0.3 0.2-0.5-2.5-0.5-2.5-0.5-4q-0.5-4-2.2-18l-1.8-14-2-16q-2-16 19.5-28.8 21.5-12.7 27-15.2t7-3l1.5-0.5v-0.5l1.5-0.2 1.5-0.3 16-4q16-4 21.5-4.5t10.5-0.5z"/>
    <path d="m342.5 855v9l0.5 2 0.5 2 0.3 1 0.2 1h-2l-0.2-1-0.3-1-0.3-0.2-0.2-0.3-0.2-0.3-0.3-0.2-0.5-1-0.5-1-0.3-0.2-0.2-0.3-0.2-0.3-0.3-0.2-0.3-0.2-0.2-0.3-14.2-18.7q-14.3-18.8-13-21 1.2-2.3 8.7-8.8t16.5-10.5 24-6.5 50.5-3.5 38.5-1-4 4-41 13-42 13.5-11.8 8.2q-3.7 3.8-5.7 8.8t-2 14z"/>
   </g>
   <path d="m753.5 291.2l1.5-0.2-0.2 0.5-0.3 0.5-0.3 0.2-0.2 0.3 1.5 0.5 1.5 0.5-0.2 0.3-0.3 0.2-0.3 0.2-0.2 0.3h10l-0.2 0.3-0.3 0.2-0.3 0.2q-0.20001 0.29999-1 1-0.70001 0.79999 0 2.8 0.79999 2-0.20001 1.5l-1-0.5-0.2 1q-0.29999 1 0 1h0.20001l-11.5 3.8q-11.5 3.7-12.5 4.2t-1.8-0.79999q-0.70001-1.2-1.4 1-0.79999 2.3-4.8 3.8t-8.8 2.2q-4.7 0.79999-5 2.3-0.20001 1.5-2 1-1.7-0.5-4.4 1.7-2.8 2.3-10.8 6.3t-9 4.3q-1 0.20001-2 1.4-1 1.3-6 4.8t-6.8 3.8q-1.7 0.20001-5.4 1.7-3.8 1.5-3.8 2.5t-4 3-7.5 5.8q-3.5 3.7-6 4.7t-4.3 2.3q-1.7 1.2-2 2.7-0.20001 1.5-1.7 1.5t-1.5 1-1 1-2 2.5-2.8 3q-1.7 0.5-3.7 3t-2.3 3.5q-0.20001 1-3 2.5-2.7 1.5-4 2-1.2 0.5-1.2 2.5t-1.8 2.5q-1.7 0.5-2 1.5-0.20001 1-1.7 1t-2 2.5-2.3 3q-1.7 0.5-3.4 3.5-1.8 3-3 3.5-1.3 0.5-1.6 1.5-0.20001 1-1.2 1-1 0-1 1.5t-1 1.5-1.5 2-2.7 3.5q-2.3 1.5-2 2.5 0.20001 1-0.79999 1t-3.5 4.8q-2.5 4.7-4 5.4-1.5 0.79999-3.7 5.3-2.3 4.5-3.3 6t-4.5 7.5-4.8 8.2q-1.2 2.3-0.70001 2.8 0.5 0.5-1.5 0.79999-2 0.20001-2 3.2t-1.5 3-2.3 10q-0.70001 10 0.79999 19t4 15.5 4.8 11.5q2.2 5 3.2 5t2.5 3.8q1.5 3.7 3.5 6.7t6 4 8.5 1.7q4.5 0.79999 5 1.6 0.5 0.70001 1.5 0.20001t5.5 0.20001q4.5 0.79999 5 1.6 0.5 0.70001 5 1.2 4.5 0.5 4.7 0.79999 0.29999 0.20001 0.59998 0.70001l0.2 0.5h0.20001q0.29999 0 0.59998 0.5l0.2 0.5v2.8q0 2.7 0.5 4.4 0.5 1.8 1.5 1.8h1v-2l1.5 0.2 1.5 0.3-0.2 0.3-0.3 0.2-0.3 1.5-0.2 1.5-1.5-0.2-1.5-0.3h-1q-1 0-2 0.29999-1 0.20001-1 1.2 0 1-1 1t-1.2-1q-0.29999-1-0.79999 0t-1.8 0.20001q-1.2-0.70001-3.7-0.40002l-2.5 0.2-6-0.2q-6-0.29999-52-3.8t-59-17.5-23.5-29-20.7-34.7q-10.3-19.8-18.3-42.8t-12.7-47.5l-4.8-24.5h0.5l0.5-5.5 0.5-5.5 0.3 1 0.2 1h2l0.2-1 0.3-1 0.3-1.5 0.2-1.5 1 0.2 1 0.3 0.2 0.3 0.3 0.2 0.3 0.2 0.2 0.3 0.2 0.3 0.3 0.2 0.3 0.2 0.2 0.3 0.5 0.3 0.5 0.2 1.8 14q1.7 14 2.2 18l0.5 4 0.5 2.5 0.5 2.5 0.3-0.2 0.2-0.3 0.2-0.3 0.3-0.2 0.5-1 0.5-1 0.5-1 0.5-1 0.5-1 0.5-1 0.3-0.2q0.20001-0.29999 10.4-17l10.3-16.8 0.3-0.2 0.2-0.3 0.2-0.3 0.3-0.2 0.3-0.2 0.2-0.3 0.2-0.3 0.3-0.2 0.5-1 0.5-1h1l0.5 1 0.5 1 0.3-0.2 0.2-0.3 0.2-0.3 0.3-0.2 0.5 1 0.5 1 0.3 0.2 0.2 0.3 0.2 0.3 0.3 0.2 0.3 1 0.2 1-0.2 0.5-0.3 0.5-0.5 1-0.5 1-8.5 14.5q-8.5 14.5-14.5 29t1.5 34.5 18.8 40.2q11.2 20.3 23.7 36.8t19 24 25.5 9.5 25 2.5l6 0.5h5l-0.2-0.3-0.3-0.2-0.5-1-0.5-1-0.5-1-0.5-1-6-14.5q-6-14.5-8.5-27t-2-25.5 15-38.5 28-43 27.8-30.7q14.2-13.3 32.2-25.3t39-22 44.5-18 25-8.3zm-55.3 35.6q-0.20001-0.29999 0-0.59998 0.29999-0.20001 0.29999 0.29999t-0.29999 0.29999zm-284 30q-0.20001-0.29999 0-0.59998 0.29999-0.20001 0.29999 0.29999t-0.29999 0.29999zm220 14q-0.20001-0.29999 0-0.59998 0.29999-0.20001 0.29999 0.29999t-0.29999 0.29999zm-10.2 8.2q0-1 1.2-0.5 1.3 0.5 0 1-1.2 0.5-1.2-0.5zm-29.8 32.8q-0.20001-0.29999 0-0.59998 0.29999-0.20001 0.29999 0.29999t-0.29999 0.29999zm-33 53q-0.20001-0.29999 0-0.59998 0.29999-0.20001 0.29999 0.29999t-0.29999 0.29999zm-1 38q-0.20001-0.29999 0-0.59998 0.29999-0.20001 0.29999 0.29999t-0.29999 0.29999zm60 50q-0.20001-0.29999 0-0.59998 0.29999-0.20001 0.29999 0.29999t-0.29999 0.29999z"/>
   <path d="m446.5 1.2l0.5-0.2 1 0.5q1 0.5 1.2 2.5l0.3 2 1.5 6.5q1.5 6.5 2 7t0.79999 0.7l0.2 0.3 7.5-1.5q7.5-1.5 25-4t36-3.5 27.7-0.3q9.3 0.8 10 1.6 0.79999 0.7 1.8 0.2t4.5 0 12 2 10.7 2.2q2.3 0.8 2.6 1.3l0.2 0.5-0.5 0.2q-0.5 0.3-4.3 3-3.7 2.8-3 3.6 0.79999 0.7-0.70001 1.2l-1.5 0.5-0.2-0.3-0.3-0.2-0.3 0.2-0.2 0.3-1 0.5-1 0.5-1 0.5-1 0.5 1 0.5 1 0.5 0.2 0.3 0.3 0.2 0.3 1 0.2 1 1 0.2 1 0.3v0.5l-2-0.2-2-0.3-3-0.5q-3-0.5-16.5-1.5t-36 0.5-52 7-40.5 13-21.8 17.8q-10.7 10.2-22.7 24.2l-12 14-0.5 1-0.5 1-0.3 0.2-0.2 0.3-0.2 0.3-0.3 0.2-0.3 0.2-0.2 0.3-0.2 0.3-0.3 0.2-0.3 1.5-0.2 1.5h-2l0.2-1 0.3-1 0.5-1 0.5-1 0.5-1 0.5-1 0.5-1 0.5-1 9.3-17.2q9.2-17.3 21-32.6 11.7-15.2 17.2-20.7t5.8-5.7l0.2-0.3 0.2-0.3 0.3-0.2 0.3-0.2 0.2-0.3 0.2-0.3 0.3-0.2 0.3-0.2 0.2-0.3 0.2-0.3 0.3-0.2 0.3-0.2 0.2-0.3 0.2-0.3 0.3-0.2 0.3-0.2 0.2-0.3 0.2-0.3 0.3-0.2 0.3-0.2 0.2-0.3 0.2-0.3 0.3-0.2 0.3-0.2 0.2-0.3h-3l-1.5 0.5-1.5 0.5-1 0.5-1 0.5-1.5 0.5q-1.5 0.5-21.5 10.5t-54.5 33-44.7 42.7q-10.3 19.8-19.8 46.3t-15 50.5-8 49.5l-2.5 25.5-0.5-2.5-0.5-2.5-0.5-4.5q-0.5-4.5-0.5-35t4-54 12-50.5l8-27 0.5-1.5 0.5-1.5 0.5-1.5 0.5-1.5 0.3-1 0.2-1-1 0.2-1 0.3-0.2 0.3-0.3 0.2-0.3 0.2-0.2 0.3-1 0.5-1 0.5-1 0.5-1 0.5-18.2 12.3q-18.3 12.2-33.3 25.7t-30.5 32-20.5 35.5-7 31.5-2 30.5v21l-0.5-1.5-0.5-1.5-0.5-2-0.5-2-0.5-1.5q-0.5-1.5-2-9t-4-40.5l-2.5-33-0.5 1.5-0.5 1.5-0.5 1-0.5 1-0.5 1.5-0.5 1.5-6 16.5q-6 16.5-9 32t-3.3 16l-0.2 0.5-1.8 3.5q-1.7 3.5-2.2 5l-0.5 1.5-0.3-0.2-0.2-0.3-0.2-0.3-0.3-0.2-0.3-0.2-0.2-0.3-0.2-0.3-0.3-0.2-0.5 1-0.5 1-0.5-1-0.5-1-0.5-1.5q-0.5-1.5-1 0t-2-3.5-4.2-5.5l-2.8-0.5v-1l0.2-0.5q0.3-0.5 0.60001-0.5h0.2l0.2-1.5q0.3-1.5 0.3-2t1.3-8q1.2-7.5 2.2-7.5t2.2-7.5q1.3-7.5 4.3-16t4.5-13 2.5-7 2.5-5 3.2-7.5q1.8-5 2.8-5t3-5 3-5 1-1v-1l2.8 1q2.7 1 4.4 1.5 1.8 0.5 3 2.5 1.3 2 1.6 3l0.2 1h3l1.5-2.8q1.5-2.7 6.3-9.4 4.7-6.8 5.4-7.6 0.8-0.7 2-2 1.3-1.2 1-2.2-0.2-1 2.6-3.5 2.7-2.5 12.4-14 9.8-11.5 12.3-12.7 2.5-1.3 8-6.3t6.5-5.3q1-0.2 2.5-2 1.5-1.7 5.5-4.4 4-2.8 4-3.8t1.8-1q1.7 0 2-1 0.2-1 1.2-1t1-1 2-1.8q2-0.7 3.5-1.7t3-2 3.5-2.5 4-2.2q2-0.8 2-1.8t18.5-10.2q18.5-9.3 20.5-9.6l2-0.2 0.2 2q0.29999 2 0.79999 4l0.5 2 0.3 0.2 0.2 0.3 0.2 0.3 0.3 0.2 0.3-0.2 0.2-0.3 0.2-0.3 0.3-0.2 0.3-0.2 0.2-0.3 0.2-0.3 0.3-0.2 0.3-0.2 0.2-0.3 3.5-2.5q3.5-2.5 10.7-8.2 7.3-5.8 7.6-6.8 0.20001-1 1.2-1 1 0 1-1t3.2-2.5q3.3-1.5 3.6-3 0.20001-1.5 4.2-3t6-3.7q2-2.3 5-3.6 3-1.2 3-2.2t9.5-6 9.5-6 2.5-1.8q2.5-0.7 5-1.7t16.5-8 30-12 20.5-6 5-1.3zm105.7 12.6q-0.20001-0.3 0-0.6 0.29999-0.2 0.29999 0.3t-0.29999 0.3zm-350 122q-0.2-0.3 0-0.60001 0.3-0.2 0.3 0.3t-0.3 0.3zm-57 44.4q0.3-0.2 0.60001 0 0.2 0.3-0.3 0.3t-0.3-0.3z"/>
  </g>
  <path d="m174.2 738.2l0.3-0.2v2l-0.5 1-0.5 1-0.5 1-0.5 1-0.5 1-0.5 1-10 26q-10 26-15 48t-6 31-0.5 25.5 10 32.5 9.8 16.5l0.2 0.5 0.2 1.5 0.3 1.5 0.7 3.5q0.8 3.5-0.2 3.7-1 0.29999-0.8 0.59998l0.3 0.2 0.3 0.2 0.2 0.3h-4l0.2 0.3 0.3 0.2 1.7 3.5q1.8 3.5 0.8 3.5t-1.8-1.5q-0.7-1.5-1.2-3l-0.5-1.5-0.3-0.2-0.2-0.3-0.2-0.3-0.3-0.2-0.3-0.2q-0.2-0.29999-0.7-1.6-0.5-1.2-2-1.4-1.5-0.29999-3.7-2l-2.3-1.8-0.3-0.2-0.2-0.3-0.2-0.3-0.3-0.2-0.3-0.2-0.2-0.3-0.2-0.3-0.3-0.2-0.3-0.2-0.2-0.3h-4v0.5h-0.2q-0.3 0-1.3-2.5t-2.3-3q-1.2-0.5-1.2-1.5t1-1.2q1-0.29999-0.5-0.59998-1.5-0.20001-3.7-5.2-2.3-5-3-7.5-0.8-2.5-1.8-2.5t-1.8-3q-0.7-3-1.2-6l-0.5-3 0.5-2 0.5-2 0.3-0.2 0.2-0.3-0.2-0.3-0.3-0.2-0.5-1-0.5-1-0.3 0.2-0.2 0.3-0.2 0.3-0.3 0.2-0.3 0.2-0.2 0.3-0.2 0.3-0.3 0.2-0.3 0.2-0.2 0.3-0.2 0.3-0.3 0.2-0.3 0.2-0.2 0.3-0.2 0.3-0.3 0.2-0.5 1-0.5 1-0.3 0.2-0.2 0.3-0.2 0.3-0.3 0.2 0.3 2.8q0.2 2.7 0.39999 3 0.3 0.20001 0.8 2.2l0.5 2 0.3 0.2 0.2 0.3-1 0.5-1 0.5h-2l-0.2-0.3-0.3-0.2-0.3-0.2-0.2-0.3-0.2-0.3-0.3-0.2-0.3 0.2-0.2 0.3h-2l-0.2-0.3-0.3-0.2-0.5-1-0.5-1-0.3-0.2-0.2-0.3-1-0.3q-1-0.20001-4.2-11.2-3.3-11-7.3-24.5t-3.3-14q0.8-0.5 0.8-6t-1-5.5-1-1.8q0-1.7-1-4.7t-2-6.7q-1-3.8-1.8-4.3l-0.7-0.5 0.3-0.2 0.2-0.3-0.2-0.3-0.3-0.2-0.3-0.2-0.2-0.3 0.2-0.3 0.3-0.2 0.3-0.2 0.2-0.3-0.2-0.3-0.3-0.2-0.5-1-0.5-1-0.3-1-0.2-1v-1h0.5l0.3 0.2 0.2 0.3 0.2 0.3 0.3 0.2 0.3 0.2 0.2 0.3 0.2 0.3 0.3 0.2 0.3 0.2 0.2 0.3 1.2 0.3q1.3 0.20001 1.8 1.2l0.5 1 0.5 1 0.5 1 0.3-0.2 0.2-0.3 0.2-0.3 0.3-0.2 0.5-1.5 0.5-1.5 0.5-1.5q0.5-1.5 1.8-1l1.2 0.5v-7h0.5l0.5 1.5 0.5 1.5 7 25q7 25 7.5 26.5l0.5 1.5 0.5 2 0.5 2 0.5 1 0.5 1 0.5-2.5 0.5-2.5 0.5-4.5q0.5-4.5 1-8t4.5-18 11.5-31 20.2-36.7l12.8-20.3 0.2-0.3 0.3-0.2 0.3-0.2 0.2-0.3 0.2-0.3 0.3-0.2 0.5-1 0.5-1 0.3-0.2 0.2-0.3 0.2-0.3 0.3-0.2 0.5-1 0.5-1 0.3-0.2 0.2-0.3 0.2-0.3zm-66.2 158.8q0-1 1.5-0.20001 1.5 0.70001 0 1-1.5 0.20001-1.5-0.79999zm25.2 14.2q0.3-0.20001 0.60001 0 0.2 0.29999-0.3 0.29999t-0.3-0.29999z" stroke="#dfdfe0"/>
  <path d="m649.8 42.2l0.2 0.3 0.2 0.3 0.3 0.2 0.3 0.2 0.2 0.3 0.2 0.3 0.3 0.2 0.3 1 0.2 1-1.5 0.2-1.5 0.3h-2l-0.2-0.3q-0.29999-0.2-1 0.6-0.79999 0.7-3.3 1.7t-5.7 2.3q-3.3 1.2-13 5-9.8 3.7-12 4.4-2.3 0.8-7 2.8-4.8 2-5 3-0.29999 1-17 9-16.8 8-16.8 9t-4 2.8q-4 1.7-24.5 16.2t-34.3 27.8q-13.7 13.2-23.4 25.4-9.8 12.3-19.3 27.8t-15.7 31.2q-6.3 15.8-10.3 29.8t-4.5 15-1.5 7.5-1.3 13.5l-0.2 7h-2l0.2 1 0.3 1v1l-0.3 1-0.2 1h2v-2l3.5-1.2q3.5-1.3 5-2.3t3.7-1.7q2.3-0.79999 4-1.6 1.8-0.70001 2.6-1 0.70001-0.20001 3.4-2 2.8-1.7 4.8-2 2-0.20001 2-1.2 0-1 7.8-3 7.7-2 8.2-1.5t0.79999 0.29999l0.2-0.3 0.2-0.3 0.3-0.2 0.3-0.2 0.2-0.3 1-0.3 1-0.2v-2l1 0.2 1 0.3v1l0.2 0.3 0.3 0.2 0.3 0.2 0.2 0.3 0.2 0.3 0.3 0.2 0.3 0.2 0.2 0.3-1 0.5-1 0.5-0.2 0.3-0.3 0.2-0.3 0.2q-0.20001 0.29999-3.2 2.6l-3 2.2v3l1 0.2 1 0.3 1.5 0.5 1.5 0.5-0.2 0.3-0.3 0.2-0.3 1.5-0.2 1.5v0.5l-1.5 0.5q-1.5 0.5-7 3t-27 15.2q-21.5 12.8-19.5 28.8l2 16-0.5-0.2-0.5-0.3-0.2-0.3-0.3-0.2-0.3-0.2-0.2-0.3-0.2-0.3-0.3-0.2-0.3-0.2-0.2-0.3-1-0.3-1-0.2-0.2 1.5-0.3 1.5-0.5 2q-0.5 2-0.79999 2.2-0.20001 0.29999-1-2l-0.7-2.2-0.5 5.5-0.5 5.5h-0.5l-0.2-1.5-0.3-1.5-1-12q-1-12-0.5-36t4.5-47 11.5-45 17.8-40.8q10.2-18.7 22-34 11.7-15.2 26-29 14.2-13.7 32.7-26.2t38-22 32-14 14-5l1.5-0.5 1.5-0.5 1.5-0.5 1-0.5 1-0.5-0.2-0.3-0.3-0.2-0.3-0.2-0.2-0.3-1-0.5-1-0.5-1-0.5-1-0.5-1-0.5-1-0.5-1.5-0.5q-1.5-0.5-13-4.2l-11.5-3.8v-0.5l-1-0.3-1-0.2-0.2-1-0.3-1-0.3-0.2-0.2-0.3-1-0.5-1-0.5 1-0.5 1-0.5 1-0.5 1-0.5 0.2-0.3 0.3-0.2 0.3 0.2 0.2 0.3 1.5-0.5q1.5-0.5 0.70001-1.2-0.70001-0.8 3-3.6 3.8-2.7 4.3-3l0.5-0.2 1.5-0.2q1.5-0.3 7.7 1.4 6.3 1.8 8.6 2.6 2.2 0.7 10.2 3.7t12.5 4.7q4.5 1.8 4.5 2.8t4.2 2.5q4.3 1.5 6 2.5 1.8 1 2 2 0.29999 1 0.59998 1.2z" stroke="#b7b7b8"/>
  <path d="m825.8 281.2l0.2 0.3 1 0.5 1 0.5-1 0.3-1 0.2 0.2 1 0.3 1 0.3 1.5 0.2 1.5-2.5 0.2q-2.5 0.29999-2.7 0.59998-0.29999 0.20001-6.6 1.4-6.2 1.3-12.7 1.6-6.5 0.20001-6.5 1.2 0 1-1.5 0.79999-1.5-0.29999-2 1-0.5 1.2-2 1-1.5-0.29999-9.5 1.7t-10.5 2.3q-2.5 0.20001-2.5 1.2v1h-5v-2l0.8-2q0.70001-2 1-2.2 0.20001-0.29999 0.40002-0.59998l0.3-0.2 0.3-0.2 0.2-0.3h-10l0.2-0.3 0.3-0.2 0.3-0.2 0.2-0.3-1.5-0.5-1.5-0.5 0.2-0.3 0.3-0.2 0.3-0.5 0.2-0.5h0.5l0.3-0.2 0.2-0.3 2-0.5 2-0.5 16.5-4q16.5-4 19-4.5l2.5-0.5 2-0.5 2-0.5 1.5-0.5 1.5-0.5-1-0.5-1-0.5-1.5-0.5-1.5-0.5-1.5-0.5-1.5-0.5-1-0.5q-1-0.5-25-8t-47-11.5-45-4-33.5 4.5-27.5 13.5-27.2 18.7l-11.3 9.8-0.3 0.2-0.2 0.3-0.2 0.3-0.3 0.2-0.3 0.2-0.2 0.3-0.2 0.3-0.3 0.2-0.3 0.2-0.2 0.3-0.2 0.3-0.3 0.2-0.3 0.2-0.2 0.3-0.2 0.3-0.3 0.2-0.3 0.2-0.2 0.3-0.2 0.3-0.3 0.2-0.3 0.2-0.2 0.3-0.2 0.3-0.3 0.2-0.3 1-0.2 1h-2l0.2-1 0.3-1 0.3-0.2 0.2-0.3 0.2-0.3 0.3-0.2 0.3-0.2 0.2-0.3 0.2-0.3 0.3-0.2 0.5-1 0.5-1 0.3-0.2 0.2-0.3 0.2-0.3 0.3-0.2 0.5-1 0.5-1 0.3-0.2 0.2-0.3 6.8-10.7q6.7-10.8 7.2-11.8l0.5-1 0.3-0.2 0.2-0.3 0.2-0.3 0.3-0.2 0.5-1 0.5-1 0.5-1 0.5-1 0.3-0.2 0.2-0.3h-2l-1.5 0.5-1.5 0.5-1.5 0.5-1.5 0.5-2 0.5q-2 0.5-16 5.5t-32 14.5-33 21-27.2 25.2l-12.3 13.8-0.3 0.2-0.2 0.3-0.2 0.3-0.3 0.2-0.5 1-0.5 1-0.3 0.2-0.2 0.3-0.2 0.3-0.3 0.2h-0.5l-0.2-1-0.3-1-0.3-0.2-0.2-0.3-0.2-0.3-0.3-0.2-0.5-1-0.5-1-0.3 0.2-0.2 0.3-0.2 0.3-0.3 0.2-0.5-1-0.5-1h-0.5v-0.5l0.2-0.3 0.3-0.2 0.5-1 0.5-1 0.3-0.2 0.2-0.3 14-16q14-16 28-27.5t18-14 5-3l1-0.5 0.2-0.3 0.3-0.2 0.3-0.2 0.2-0.3 1-0.5 1-0.5 1-0.5 1-0.5 0.2-0.3 0.3-0.2 0.3-0.2 0.2-0.3 0.2-0.3 0.3-0.2 0.3-0.2 0.2-0.3h-5q-5 0-10.5 0.5t-21.5 4.5l-16 4-1.5 0.3-1.5 0.2 0.2-1.5 0.3-1.5 0.3-0.2 0.2-0.3-1.5-0.5-1.5-0.5-1-0.3-1-0.2v-3l3-2.2q3-2.3 3.2-2.6l0.3-0.2 0.3-0.2 0.2-0.3 1-0.5 1-0.5-0.2-0.3-0.3-0.2-0.3-0.2-0.2-0.3-0.2-0.3-0.3-0.2-0.3-0.2-0.2-0.3v-0.5l0.5-1.5q0.5-1.5 5-2t4.7 0.5q0.29999 1 1 0.20001 0.79999-0.70001 2.3-1.7 1.5-1 2.5-0.5t1.5-0.79999q0.5-1.2 1.5-1.2t1.5 0.79999q0.5 0.70001 1.5 0.40002 1-0.20001 1-1.2 0-1 2-0.5t2.2 1.5q0.29999 1 0.59998-0.5 0.20001-1.5 7-3 6.7-1.5 7 0 0.20001 1.5 1 1 0.70001-0.5 3.4-2.3 2.8-1.7 5.6-2 2.7-0.20001 6.4-1 3.8-0.70001 6.8-0.40002 3 0.20001 3.5 1 0.5 0.70001 2 0.40002 1.5-0.20001 1.5 0.79999t1 1 0.5 1.2q-0.5 1.3 4 1.3t3.5-0.5 2.8-1.2q3.7-0.79999 6-2.6 2.2-1.7 5.4-2 3.3-0.20001 3.6-1.2l0.2-1 1.8-0.5q1.7-0.5 2.4 0.3 0.79999 0.7 1.8-0.8t3-1.2q2 0.2 2-0.8t1-1 1 1 3.5-0.5 4-2.3q0.5-0.7 1.3 0 0.70001 0.8 0.40002-0.39999-0.20001-1.3 2.8-2.3t4.5-1 1.7-0.3l0.3-0.2 0.3-0.2 0.2-0.3 0.2-0.3 0.3-0.2 0.3 0.2 0.2 0.3 0.2 0.3 0.3 0.2 0.3 0.2 0.2 0.3 1 0.5 1 0.5 0.5 0.5q0.5 0.5-1 0.8-1.5 0.2-1.5 1.7t1.5 1.5 1.3 1l-0.3 1-0.3 0.2-0.2 0.3 1 0.5 1 0.5 0.2 0.3 0.3 0.2 0.3-1.5q0.20001-1.5 2-1.5 1.7 0 6-1 4.2-1 4.2-2t2.5-2 3-0.2q0.5 0.7 1.5 0.2t3-2 3-1.8q1-0.2 1.2 0.8 0.29999 1 1 0.2 0.79999-0.7 2.8-0.7t0.79999-0.7q-1.3-0.8 1-1.6 2.2-0.7 3.4-1 1.3-0.2 2-1.4 0.79999-1.3 2.8-1.3t3.5-0.5 2.5-0.2q1 0.2 1-1.3t3-1.5 3-1 1-1 1.5 0.8q0.5 0.7 3 0 2.5-0.8 2.5 0.2t2.5 0.2q2.5-0.7 4.5-0.2t9.5 0.8q7.5 0.2 7.5 1.2t-1.5 1.2q-1.5 0.3 1.5 0 3-0.2 3.8 1.3 0.70001 1.5 1 0.5 0.20001-1 3.4-0.5 3.3 0.5 3 1.3-0.20001 0.7 0.79999 1 1 0.2 1-1.3t4.2 0q4.3 1.5 5.3 1.5t4.3 0.2q3.2 0.3 2.7 0.8t2.3 0.8q2.7 0.2 3.4 0.7 0.79999 0.5 0.79999-0.5t2.2-0.5q2.3 0.5 3.6 1 1.2 0.5 1.7 1.3 0.5 0.7 2.5 0.39999 2-0.2 2.2 1.3 0.29999 1.5 0.59998 0.5 0.20001-1 5.7 0.2 5.5 1.3 5 1.8t0.70001 1.2q1.3 0.8 1.8-0.7t1.2-0.7q0.79999 0.7 1.8 1.2t6.5 1.5 10.5 3.5 6 2.2q1-0.2 1.2 1.3 0.29999 1.5 0.59998 0.5 0.20001-1 2 0 1.7 1 2 2 0.20001 1 3.7 2.2 3.5 1.3 2.5 1.8t1.5 0.5 4.7 1.3q2.3 1.2 3 2.4 0.79999 1.3 3 2 2.3 0.79999 4 1.8 1.8 1 1.8 2t1 1 1 1.8q0 1.7 2.2 2 2.3 0.20001 2.3 1.7t0.29999 1.7zm-160.6-46.4q-0.20001-0.3 0-0.60001 0.29999-0.2 0.29999 0.3t-0.29999 0.3zm62 6q-0.20001-0.3 0-0.60001 0.29999-0.2 0.29999 0.3t-0.29999 0.3zm27 6q-0.20001-0.3 0-0.60001 0.29999-0.2 0.29999 0.3t-0.29999 0.3zm-169 8q-0.20001-0.3 0-0.60001 0.29999-0.2 0.29999 0.3t-0.29999 0.3zm195 0q-0.20001-0.3 0-0.60001 0.29999-0.2 0.29999 0.3t-0.29999 0.3zm-201.2 0.4q1-0.2 0.79999 0.8-0.29999 1-1.6 1.5-1.2 0.5-0.70001-0.70001 0.5-1.3 1.5-1.6zm-4.8 2.6q-0.20001-0.29999 0-0.59998 0.29999-0.20001 0.29999 0.29999t-0.29999 0.29999zm-25 4q-0.20001-0.29999 0-0.59998 0.29999-0.20001 0.29999 0.29999t-0.29999 0.29999z" stroke="#e0dfe0"/>
  <path d="m97.2 225.5l0.3 1.5 0.3 1.8q0.2 1.7 1.4 7.4 1.3 5.8 2 6.3 0.8 0.5 2 9 1.3 8.5 2.3 13.5t1.5 8.5l0.5 3.5 0.5 2.5 0.5 2.5 0.5-3.5 0.5-3.5 0.3-1.5 0.2-1.5v-1l0.2-0.5q0.3-0.5 0.60001-0.5h0.2l1.5 1.2q1.5 1.3 2.7 2 1.3 0.79999 2.3 5.3t1.5 3 1 0l0.5 1.5 0.5 1 0.5 1 0.5-1 0.5-1 0.3-0.2q0.2-0.29999 1.7-0.59998 1.5-0.20001 3-3.7l1.5-3.5-1.2 14q-1.3 14-0.8 45.5t3.5 43.5 11 30.5 18.5 35 14.5 21.5 4.5 6l0.5 1 0.3 0.2 0.2 0.3 0.2 0.3 0.3 0.2 0.3 0.2 0.2 0.3 0.2 0.3 0.3 0.2 0.3 0.2 0.2 0.3 0.2 0.3 0.3 0.2 0.3 0.2 0.2 0.3 0.2 0.3 0.3 0.2 0.5 1 0.5 1 0.3 0.2 0.2 0.3 1 0.5 1 0.5 0.2 0.3 0.3 0.2 0.3 0.2 0.2 0.3 0.2 0.3 0.3 0.2 0.3 1 0.2 1-1-0.2-1-0.3-0.2-0.3-0.3-0.2-0.3-0.2-0.2-0.3-0.2-0.3-0.3-0.2-0.3-0.2-0.2-0.3-0.2-0.3-0.3-0.2-0.3-0.2-0.2-0.3-0.2-0.3-0.3-0.2-0.3-0.2-0.2-0.3-0.2-0.3-0.3-0.2-0.3-0.2-0.2-0.3-1-0.5-1-0.5-0.2-0.3-0.3-0.2-0.3-0.2-0.2-0.3-0.2-0.3-0.3-0.2-0.3-0.2-0.2-0.3-0.2-0.3-0.3-0.2-0.3-0.2q-0.2-0.29999-7.4-7-7.3-6.8-18.3-19.3t-21.3-28.7q-10.2-16.3-18-34.6-7.7-18.2-13.2-39.7t-8-47l-2.5-25.5-0.5-2-0.5-2-0.5 1.5-0.5 1.5-0.5 1.5-0.5 1.5-21.5 64q-21.5 64-20.5 70.5t7.5 21.5 16.8 30.2q10.2 15.3 13 18.6 2.7 3.2 3.2 4.2l0.5 1 0.3 0.2 0.2 0.3 0.2 0.3 0.3 0.2 0.3 0.2 0.2 0.3 0.2 0.3 0.3 0.2 0.3 0.2 0.2 0.3 0.2 0.3 0.3 0.2 0.3 0.2 0.2 0.3 0.2 0.3 0.3 0.2 0.5 1 0.5 1 0.3 0.2 0.2 0.3 1 0.5 1 0.5 0.2 0.3 0.3 0.2 0.3 0.2 0.2 0.3 0.2 0.3 0.3 0.2 0.3 0.2 0.2 0.3 0.2 0.3 0.3 0.2 0.3 1 0.2 1-1-0.2-1-0.3-0.2-0.3-0.3-0.2-0.3-0.2-0.2-0.3-0.2-0.3-0.3-0.2-0.3-0.2-0.2-0.3-0.2-0.3-0.3-0.2-0.3-0.2-0.2-0.3-0.2-0.3-0.3-0.2-0.3-0.2-0.2-0.3-0.2-0.3-0.3-0.2-0.3-0.2-0.2-0.3-0.2-0.3-0.3-0.2-0.3-0.2-0.2-0.3-0.2-0.3-0.3-0.2-0.3-0.2-0.2-0.3-0.2-0.3-0.3-0.2-0.3-0.2-0.2-0.3-0.2-0.3-0.3-0.2-0.3-0.2-0.2-0.3-1-0.5q-1-0.5-17-16.5t-25.8-29.7l-9.7-13.8-0.3-0.2-0.2-0.3-0.2-0.3-0.3-0.2-0.5-1-0.5-1-0.5-1-0.5-1-0.3-0.2-0.2-0.3-0.2-0.3-0.3-0.2-0.5 1.5-0.5 1.5-0.5 2.5-0.5 2.5-1.5 10q-1.5 10-1 33t4.5 40 5.3 19.2q1.2 2.3 26.7 19.3t39 25 14.5 8.5l1 0.5 1 0.5 1 0.5 1 0.5 1 0.5 0.2 0.3 0.3 0.2 0.3 0.2 0.2 0.3 1 0.5 1 0.5 1.5 0.5 1.5 0.5 1 0.3 1 0.2v2l-1-0.2-1-0.3-1-0.5-1-0.5-1-0.5-1-0.5-1.5-0.5-1.5-0.5-1-0.5-1-0.5-1.5-0.5q-1.5-0.5-24-10t-42.5-20.5l-20-11-0.2-0.3-0.3-0.2-0.3-0.2-0.2-0.3-1-0.5-1-0.5-0.2-0.3-0.3-0.2-0.5 1-0.5 1v20q0 20 3 31t6.7 13.2q3.8 2.3 4.8 2.8l1 0.5 1 0.5 1 0.5v0.5h-3q-3 0-3 1.8 0 1.7-1.8 3.4-1.7 1.8-2.2 2.8t0.8 3q1.2 2 2.2 2.2l1 0.3 0.2 0.3 0.3 0.2 0.3 0.2 0.2 0.3-0.2 0.3-0.3 0.2-0.3 0.2-0.2 0.3h-1l-0.2-0.3-0.3-0.2-0.3 0.2-0.2 0.3h-1l-0.2-0.3-0.3-0.2-0.3-0.2-0.2-0.3-0.2-0.3-0.3-0.2-0.3 1-0.2 1-1.5-0.2q-1.5-0.29999-8.5-3.3t-8.2-5.3q-1.3-2.2-1.8-8.2t-2-20.5-2.5-26.5-1.5-24.5 2.5-12.5-0.7-30l-3.8-30v-30h0.5l0.5-8.5q0.5-8.5 1.8-17.3 1.2-8.7 10.2-9 9-0.20001 21.8-42.2 12.7-42 20.7-63.5t15.5-37 11.5-22.5 5.3-9.2l1.2-2.3 0.2-0.3 0.3-0.2 0.3-1 0.2-1h1q1 0 2-1.2 1-1.3 1.5 0 0.5 1.2 1.5 1.2t1.2 1.5zm27 58.7q0.3-0.20001 0.60001 0 0.2 0.29999-0.3 0.29999h-0.5l0.2-0.3z" stroke="#b2b2b3"/>
  <path d="m440 623.2l1-0.2v1q0 1-1 1.2-1 0.29999-1.2 0.59998l-0.3 0.2-0.3 0.2-0.2 0.3-0.2 0.3-0.3 0.2-0.3 0.2-0.2 0.3-0.2 0.3-0.3 0.2-0.3 0.2-0.2 0.3-0.2 0.3-0.3 0.2-0.3 0.2-0.2 0.3-0.2 0.3-0.3 0.2-0.3 0.2-0.2 0.3-0.2 0.3-0.3 0.2-0.3 0.2-0.2 0.3-9.8 11.3q-9.7 11.2-16.7 23.2t-10.5 23.5-3.8 14.5q-0.20001 3-11.7 5.8-11.5 2.7-19.3 8-7.7 5.2-10 8-2.2 2.7-2.4 3l-0.3 0.2-0.5 1-0.5 1-0.5 1-0.5 1-0.5 1-0.5 1-0.3 1-0.2 1 4.5 0.2q4.5 0.29999 11.5 0.79999l7 0.5-0.2 0.3-0.3 0.2-0.3 0.2-0.2 0.3-2 0.5-2 0.5-12 4.5q-12 4.5-17.5 9t-9.3 12.8q-3.7 8.2-5.7 18.7t-2.5 14.5l-0.5 4-0.3 3-0.2 3 1-0.2 1-0.3 0.2-0.3 0.3-0.2 0.3-0.2 0.2-0.3 1-0.5 1-0.5 1-0.5 1-0.5 14-8.5q14-8.5 20.5-10.5t43.5-2 52.5-4 16.5-4.5 2.5-1l1.5-0.5 1-0.5 1-0.5 1-0.5 1-0.5 1-0.5 1-0.5h2l-0.2 0.3-0.3 0.2-0.3 0.2-0.2 0.3-0.2 0.3-0.3 0.2-0.3 0.2-0.2 0.3-0.2 0.3-0.3 0.2-0.3 0.2-0.2 0.3-0.2 0.3-0.3 0.2-0.3 0.2-0.2 0.3-0.2 0.3-0.3 0.2-0.3 0.2-0.2 0.3-0.2 0.3-0.3 0.2-2.5 3q-2.5 3-3 4l-0.5 1-0.3 0.2-0.2 0.3-0.2 0.3-0.3 0.2-0.3 0.2-0.2 0.3-0.2 0.3-0.3 0.2-0.3 0.2-0.2 0.3-0.2 0.3-0.3 0.2-0.3 0.2-0.2 0.3-0.2 0.3-0.3 0.2-0.3 0.2-0.2 0.3-0.2 0.3-0.3 0.2v2l0.3-0.2 0.2-0.3 1-0.5 1-0.5 1-0.5 1-0.5 1-0.5 1-0.5 19.5-7.5q19.5-7.5 33-10t35-2 30.5 1l9 0.5-1 0.5-1 0.5-1 0.5-1 0.5-1 0.5-1 0.5-1 0.5-1 0.5-16.5 10q-16.5 10-25.7 19.3-9.3 9.2-9.8 10.2l-0.5 1-0.3 0.2-0.2 0.3-0.2 0.3-0.3 0.2-0.5 1-0.5 1-0.3 0.2-0.2 0.3 0.2 0.3 0.3 0.2 0.3 0.2 0.2 0.3 1 0.5 1 0.5 9 3.5q9 3.5 14.5 4.5t22 1h16.5l-0.2-0.3-0.3-0.2-0.3-0.2-0.2-0.3-1.5-0.5-1.5-0.5-1-0.5-1-0.5-6-3.5q-6-3.5-7.8-5.8-1.7-2.2-1.2-6.7t5.2-9.7q4.8-5.3 14.8-9.8t21-6.5 25.5-1.5 17.3 3.2q2.7 2.8 2.7 10.3t-1.5 10.5-2 4l-0.5 1-0.3 0.2-0.2 0.3-0.2 0.3-0.3 0.2-0.5 1-0.5 1-0.5 1-0.5 1-0.3 0.2-0.2 0.3-0.2 0.3-0.3 0.2-0.3 0.2-0.2 0.3h2l0.2-0.3 0.3-0.2 0.3-0.2 0.2-0.3 0.2-0.3 0.3-0.2 0.3-0.2 0.2-0.3 0.2-0.3 0.3-0.2 0.3-0.2 0.2-0.3 0.2-0.3 0.3-0.2 0.3-0.2 0.2-0.3 0.2-0.3 0.3-0.2 0.3-0.2 0.2-0.3 0.2-0.3 0.3-0.2 0.3-0.2q0.20001-0.29999 2.7-2.8t10.7-12.2l8.3-9.8 0.5-1 0.5-1 0.3-1 0.2-1h0.5l0.5 1 0.5 1 0.3 0.2 0.2 0.3h1l0.2-0.3 0.3-0.2 0.3 0.2 0.2 0.3h1l0.2-0.3 0.3-0.2h0.5l-0.2 1-0.3 1-0.5 1-0.5 1-1.7 2.8q-1.8 2.7-2 3l-0.3 0.2-0.5 1-0.5 1-0.3 0.2-0.2 0.3-0.2 0.3-0.3 0.2-0.3 0.2-0.2 0.3-0.2 0.3-0.3 0.2-0.3 0.2-0.2 0.3-0.2 0.3-0.3 0.2-0.3 0.2-0.2 0.3-0.2 0.3-0.3 0.2-0.3 0.2-0.2 0.3h2l0.2-0.3 0.3-0.2h0.5l1.2 0.5q1.3 0.5 1.6-0.5 0.20001-1 1.2-1.2l1-0.3 0.2-0.3 0.3-0.2 0.3 0.2 0.2 0.3 0.2 0.3 0.3 0.2 0.3 1 0.2 1-1.5 0.2-1.5 0.3 1 0.5 1 0.5-1 0.3-1 0.2 0.2 1 0.3 1 0.3 0.2 0.2 0.3-1 0.3q-1 0.20001-1 1.2 0 1-1 0.79999-1-0.29999-1.8 1-0.70001 1.2-2.2 2.2t-4.2 1.8l-2.8 0.7-0.2 0.3-0.3 0.2-0.3 0.2-0.2 0.3-0.2 0.3-0.3 0.2-0.3 0.2-0.2 0.3 1 0.5 1 0.5 0.2 0.3 0.3 0.2 0.5 1 0.5 1 0.3 0.5 0.2 0.5-1 0.2q-1 0.29999-2.5 1.3t-6 2.7q-4.5 1.8-4.7 2.8-0.29999 1-12 8.2l-11.8 7.3h-1l-0.2-0.3-0.3-0.2-0.3 0.2-0.2 0.3-0.2 0.3-0.3 0.2-0.3 0.2-0.2 0.3-1 0.5-1 0.5-0.2 0.3-0.3 0.2-0.3 1-0.2 1-1.5-0.2-1.5-0.3 0.2-0.3 0.3-0.2 0.3-0.2 0.2-0.3 0.2-0.3 0.3-0.2 0.3-0.2 0.2-0.3 0.2-0.3 0.3-0.2 0.3-0.2 0.2-0.3-0.2-0.3-0.3-0.2v-2l0.5-2.5q0.5-2.5 2.5-9t3.7-13q1.8-6.5 2.8-6.7 1-0.29999 1-3 0-2.8 1-2.8h1l-0.2-1-0.3-1-0.3-0.2-0.2-0.3 0.2-0.3 0.3-0.2 0.3-0.2 0.2-0.3-1-0.5-1-0.5h-4l-1.5 0.5q-1.5 0.5-3 0.5t-2.3 0.70001q-0.70001 0.79999-4.4 1-3.8 0.29999-11.8 2.3l-8 2-2.5 0.3-2.5 0.2 0.2 1 0.3 1 0.3 0.2 0.2 0.3 0.2 0.3 0.3 0.2 0.3 0.2 0.2 0.3 0.2 0.3 0.3 0.2 0.3 0.2 0.2 0.3 0.2 0.3 0.3 0.2 0.3 0.2 0.2 0.3 1 0.3q1 0.20001 1.5 1.4 0.5 1.3 2.5 3.3t5.2 4.3q3.3 2.2 3.6 3.2 0.20001 1 1.2 1 1 0 1.2 1 0.29999 1 0.59998 1.2l0.2 0.3 0.2 0.3 0.3 0.2 0.3 0.2 0.2 0.3 0.2 0.3 0.3 0.2 0.3 0.2 0.2 0.3 0.2 0.3 0.3 0.2 0.3 0.2 0.2 0.3 0.2 0.3 0.3 0.2 0.3 0.2 0.2 0.3-1 0.5-1 0.5-0.2 0.3-0.3 0.2-0.3 0.2-0.2 0.3h-2l-0.2-0.3-0.3-0.2-0.3 0.2q-0.20001 0.29999-12.7 3.8t-29 3.5-24-1-30.5-9.3l-23-8.2 0.2-1 0.3-1 0.3 0.2 0.2 0.3 0.2 0.3 0.3 0.2v-3l-0.3-0.2-0.2-0.3 0.2-0.3 0.3-0.2 0.3-0.2q0.20001-0.29999 8.2-9.3l8-9 0.2-0.3 0.3-0.2 0.3-0.2 0.2-0.3 0.2-0.3 0.3-0.2 0.3-0.2 0.2-0.3 0.2-0.3 0.3-0.2 0.3-0.2 0.2-0.3 0.2-0.3 0.3-0.2 0.3-0.2 0.2-0.3 0.2-0.3 0.3-0.2 0.3-0.2 0.2-0.3 0.2-0.3 0.3-0.2 0.3-0.2 0.2-0.3h-3l-1.5 0.5-1.5 0.5-20.5 5q-20.5 5-29.3 7.3-8.7 2.2-25.4 6.4-16.8 4.3-19.8 5.3t-3.5 1.7q-0.5 0.79999-3.5 0.79999t-3 1-1.5 0.79999q-1.5-0.29999-6 0.40002-4.5 0.79999-4.5 1.8t-3.2 1q-3.3 0-13.6 3.8-10.2 3.7-17.2 8.2t-8.8 10.8q-1.7 6.2-2.2 10.2t0 7.5 1.5 7.5 1.5 5l0.5 1 0.3 1 0.2 1-1.5 0.2-1.5 0.3h-2l-0.2-0.3q-0.29999-0.20001-3.6 0.59998-3.2 0.70001-11.4-1-8.3-1.8-13-4.3-4.8-2.5-4.8-3.5t-1-1-1-1-2-1.2q-2-0.29999-8.2-7l-6.3-6.8-0.3-0.2-0.2-0.3-0.2-0.3-0.3-0.2-0.5-1-0.5-1-0.3-0.2-0.2-0.3-0.2-0.3-0.3-0.2-0.3 0.2-0.2 0.3-0.2 0.3-0.3 0.2-0.3 0.2-0.2 0.3 0.2 0.3 0.3 0.2-1 16q-1 16-0.5 17t0.79999 2.5l0.2 1.5h-0.5l-0.5-1q-0.5-1-1 2.5l-0.5 3.5-0.3-0.2-0.2-0.3-0.2-0.3-0.3-0.2v-2q0-2 0-3v-1l-0.3-0.2-0.2-0.3-0.2-0.3-0.3-0.2-1 9.5q-1 9.5-0.70001 10.5 0.20001 1-0.79999 1t-1-1.5-0.79999-1q-0.70001 0.5-0.70001 3v2.5l-0.3 0.2-0.2 0.3-0.2 0.3-0.3 0.2-0.5-1-0.5-1-0.5 1-0.5 1-0.5-1-0.5-1-0.3-0.2-0.2-0.3-0.2-0.3-0.3-0.2h-0.5l-0.2-3q-0.29999-3-0.79999-20t1.5-38.5 7-44 14-39.5 21-32 27.3-28.8q15.2-13.7 21.4-23.4 6.3-9.8 16-22 9.8-12.3 22.3-22.8l12.5-10.5 0.2-0.3 0.3-0.2 0.3-0.2 0.2-0.3 1-0.5 1-0.5 0.2-0.3 0.3-0.2 0.3-0.2 0.2-0.3 1-0.5 1-0.5 0.2-0.3 0.3-0.2 0.3-0.2 0.2-0.3 0.2-0.3 0.3-0.2 0.3-0.2q0.20001-0.29999 1.2-0.59998zm-97.5 231.8v9l0.5 2 0.5 2 0.3 1 0.2 1h-2l-0.2-1-0.3-1-0.3-0.2-0.2-0.3-0.2-0.3-0.3-0.2-0.5-1-0.5-1-0.3-0.2-0.2-0.3-0.2-0.3-0.3-0.2-0.3-0.2-0.2-0.3-14.2-18.7q-14.3-18.8-13-21 1.2-2.3 8.7-8.8t16.5-10.5 24-6.5 50.5-3.5 38.5-1-4 4-41 13-42 13.5-11.8 8.2q-3.7 3.8-5.7 8.8t-2 14z" stroke="#cdcccd"/>
  <g stroke="#fff">
   <path d="m466 574l2 0.5 1 0.5 1 0.5 2 0.5 2 0.5 1 0.5 1 0.5-2 0.5-2 0.5-1.5 0.5-1.5 0.5-10.5 0.5q-10.5 0.5-26.5-1t-39.5 11l-23.5 12.5-1 0.5-1 0.5-1 0.5-1 0.5-1 0.5-1 0.5h-3l1-0.5 1-0.5 0.2-0.3 0.3-0.2 0.3-0.2 0.2-0.3 0.2-0.3 0.3-0.2 0.3-0.2 0.2-0.3 1-0.5 1-0.5 0.2-0.3 0.3-0.2 0.3-0.2 0.2-0.3 0.2-0.3 0.3-0.2 3.3-2q3.2-2 6.7-5.8 3.5-3.7 16.5-14.2t16.8-15.8q3.7-5.2 4.7-10.2t-2.5-21.5-8-32.5-9-46-4.2-31.8q0.20001-1.7 12 43 11.7 44.8 18.7 62.3t11.3 24.7q4.2 7.3 8.2 11.3t13 8 11 4.5z"/>
   <path d="m681 764l-1-0.5h4l11 2q11 2 12 2.5t2.5 1l1.5 0.5 0.2 0.3 0.3 0.2 0.3 0.2 0.2 0.3 1 0.5 1 0.5 1 0.3 1 0.2-0.2 1-0.3 1-0.3 0.2-0.2 0.3-0.2 0.3-0.3 0.2-0.5 1-0.5 1-7.3 7.8q-7.2 7.7-10.7 10.7t-4.5 3.5l-1 0.5-0.2 0.3-0.3 0.2-0.3 0.2-0.2 0.3-0.2 0.3-0.3 0.2-0.3 0.2-0.2 0.3-1 0.5-1 0.5v0.5h-0.5l-0.3 0.2-0.2 0.3h-2l0.2-0.3 0.3-0.2 0.3-0.2 0.2-0.3 0.2-0.3 0.3-0.2 0.3-0.2 0.2-0.3 0.2-0.3 0.3-0.2 0.3-0.2 0.2-0.3 0.2-0.3 0.3-0.2 0.3-0.2 0.2-0.3 0.2-0.3 0.3-0.2 0.5-1 0.5-1 0.3-0.2q0.20001-0.29999 2-3l1.7-2.8 0.5-1 0.5-1 0.3-1 0.2-1 0.2-0.5 0.3-0.5 0.5-2.5 0.5-2.5v-2l-0.5-2q-0.5-2-1.8-4.5-1.2-2.5-4.2-4.3l-3-1.7-1-0.5-1-0.5-1-0.5-1-0.5-1-0.5z" fill="#fff"/>
  </g>
  <path d="m298.2 901.2l1.3-9.2 0.3 0.2 0.2 0.3 0.2 0.3 0.3 0.2v1q0 1 0 3v2l0.3 0.2 0.2 0.3 0.2 0.3 0.3 0.2 0.5-3.5q0.5-3.5 1-2.5l0.5 1h0.5l0.8 10q0.70001 10 1.2 12.5 0.5 2.5 0.79999 8.3 0.20001 5.7 1 6.4 0.70001 0.79999 0.40002 2.8-0.20001 2 0.79999 2t1.5 4.2q0.5 4.3-0.5 4.8t-0.20001 1.2q0.70001 0.79999 1.4 4 0.79999 3.3 1.6 4.6 0.70001 1.2 0.40002 2.7-0.20001 1.5 0.79999 1.5t3 9.2q2 9.3 2.8 11.6 0.70001 2.2 6.7 18.7t13.3 32.3q7.2 15.7 17.2 34.2t22 37.5 12.2 19.3l0.3 0.2 0.3 0.2 0.2 0.3 0.2 0.3 0.3 0.2 0.3 0.2 0.2 0.3 0.2 0.3 0.3 0.2 0.5 1 0.5 1 0.3 0.2 0.2 0.3 0.2 0.3 0.3 0.2 0.3 1 0.2 1h-0.5l-0.3 0.2-0.2 0.3h-1l-1-0.5-1-0.5-1-0.5-1-0.5-1-0.5-1-0.5-2-0.5q-2-0.5-3.5-1t-17.5-7-32.5-16.5-20.5-12.3q-4-2.2-4.2-3.2-0.29999-1-6-4.5-5.8-3.5-5.8-4.5t-1-1.2q-1-0.30005-1.5-1.6001-0.5-1.2-2-1.3999-1.5-0.30005-2.5-2-1-1.8-3.5-2.3t-2.7-1.5q-0.29999-1-14.3-15t-14.5-15-1.8-1.8q-1.2-0.69995-2.4-2.3999-1.3-1.8-3-4-1.8-2.3-2.6-3-0.7-0.80005-3-3.8-2.2-3-3.2-3t-1.5-1.2l-0.5-1.3-0.2-0.3-0.3-0.2-0.3-0.2-0.2-0.3-0.2-0.3-0.3-0.2-0.5-1-0.5-1-0.5 1.5-0.5 1.5-1 2.5q-1 2.5-1.5 3.5l-0.5 1-0.3 0.2-0.2 0.3h-1l-0.2-0.3-0.3-0.2-0.3-0.2-0.2-0.3-1-0.5q-1-0.5-3-1.2-2-0.79999-2.2-1.8-0.3-1-3-2.5-2.8-1.5-2.8-3t-1.5-1.5-1.7-1q-0.3-1-2.6-2.2-2.2-1.3-2.7-2.6-0.5-1.2-2.5-2.4-2-1.3-4.2-3.6-2.3-2.2-3.6-2.7-1.2-0.5-2-2-0.7-1.5-2.4-2-1.8-0.5-1.8-1.5t-1-1.2q-1-0.29999-1.8-2-0.7-1.8-2-2.6-1.2-0.70001-1.7-2-0.5-1.2-2-1.2t-2.3-2q-0.7-2-3-3.8-2.2-1.7-4.4-5-2.3-3.2-3-4-0.8-0.70001-2-3-1.3-2.2-2-2-0.8 0.29999-1.8-2.4-1-2.8-2.5-3-1.5-0.29999-2.5-2-1-1.8-2-1.8t-1.2-1q-0.3-1-3.6-6.2-3.2-5.3-3.2-7.6 0-2.2-1.5-2.4-1.5-0.29999-2.3-2.6l-0.7-2.2 0.3-0.2 0.2-0.3-1-0.5-1-0.5-1-0.3-1-0.2v-2.5h4l0.2 0.3 0.3 0.2 0.3 0.2 0.2 0.3 0.2 0.3 0.3 0.2 0.3 0.2 0.2 0.3 0.2 0.3 0.3 0.2 2.3 1.8q2.2 1.7 3.7 2 1.5 0.20001 2 1.4 0.5 1.3 0.7 1.6l0.3 0.2 0.3 0.2 0.2 0.3 0.2 0.3 0.3 0.2 0.3 0.2 0.2 0.3 0.2 0.3 0.3 0.2v-2l-0.3-0.2-0.2-0.3h4l-0.2-0.3-0.3-0.2-0.3-1.5q-0.2-1.5 0.8-1.5t0.2-2.5l-0.7-2.5-0.3-1.5-0.2-1.5h0.5l0.5 1 0.5 1 0.3 0.2 0.2 0.3 0.2 0.3 0.3 0.2 0.5 1 0.5 1 0.3 0.2 0.2 0.3 0.2 0.3 0.3 0.2 14.7 17.8q14.8 17.7 22.8 25.7t9 8.5l1 0.5 0.2 0.3 0.3 0.2 0.3 0.2 0.2 0.3 0.2 0.3 0.3 0.2 0.3 0.2 0.2 0.3 0.2 0.3 0.3 0.2 0.3 0.2 0.2 0.3 0.2 0.3 0.3 0.2 0.3 0.2 0.2 0.3 0.2 0.3 0.3 0.2 0.3 0.2 0.2 0.3 0.2 0.3 0.3 0.2v-2l-0.5-1.5-0.5-1.5-0.5-1-0.5-1-0.5-1.5q-0.5-1.5-3.5-13.5t-3-36v-24l0.5 2.5 0.5 2.5 5 18q5 18 13 35t20 34 29.7 34.8q17.8 17.7 40.3 34.2t26.7 19.2q4.3 2.8 4.6 3l0.2 0.3 1 0.5 1 0.5 0.2 0.3 0.3 0.2 0.3 0.2 0.2 0.3 1 0.5 1 0.5 0.2 0.3 0.3 0.2 0.3 0.2 0.2 0.3h1l0.2-0.3 0.3-0.2 0.3-0.2 0.2-0.3-0.2-0.3-0.3-0.2-0.3-0.2-0.2-0.3-0.2-0.3-0.3-0.2-0.5-1-0.5-1-0.5-1-0.5-1-0.5-1q-0.5-1-6.8-11.8-6.2-10.7-19-37-12.7-26.2-21.2-51.7t-12.8-49.5l-4.2-24h0.5l0.3 0.2 0.2 0.3 0.2 0.3 0.3 0.2 0.5 1 0.5 1 0.3-1.5q0.20001-1.5 1.2-1.3 1 0.29999 1.2-1.4 0.29999-1.8 1.6-2 1.2-0.29999 2.4-9.6zm-5 15q0.29999-0.20001 0.59998 0l0.2 0.3h-0.5q-0.5 0-0.29999-0.29999zm-134 27.3q0.3-1.5 1 0 0.8 1.5-0.2 1.5t-0.8-1.5z" stroke="#c6c6c7"/>
  <path d="m558 635.5l0.5-1.5 0.5 1 0.5 1 0.5 1 0.5 1 0.5 1 0.5 1 5.3 9.2q5.2 9.3 22.2 6.3t18-3.3l1-0.2v0.5l2 0.3 2 0.2v4h-0.20001q-0.29999 0-20.6 4.8-20.2 4.7-24.4-2l-4.3-6.8-0.5-1-0.5-1-0.3-0.2-0.2-0.3-0.2-0.3-0.3-0.2-0.5 1-0.5 1-0.5 1.5-0.5 1.5-6.3 9.8q-6.2 9.7-13.7 15.7t-10 6.7q-2.5 0.79999-8.5 12.6-6 11.7-13 21.2t-7.2 9.8l-0.3 0.2-0.3 0.2-0.2 0.3-0.2 0.3-0.3 0.2-0.3 0.2-0.2 0.3-0.2 0.3-0.3 0.2-0.3 0.2-0.2 0.3-0.2 0.3-0.3 0.2-0.3 0.2-0.2 0.3 0.5 0.5q0.5 0.5 1 0.5h0.5l0.2-0.3 0.3-0.2 0.3-0.2 0.2-0.3 1-0.5 1-0.5 0.2-0.3 0.3-0.2 0.3-0.2q0.20001-0.29999 0.40002-0.59998l0.3-0.2 0.3-0.2 0.2-0.3 21.5-13q21.5-13 47-25t54.5-22.5 40.5-11.5 29.5-0.5 25 2 9 2l2 0.5 1 0.5 1 0.5 0.2 0.3 0.3 0.2v3l-2 4.5q-2 4.5-2.5 5.5l-0.5 1-0.3 0.2-0.2 0.3-0.2 0.3-0.3 0.2-0.3 0.2-0.2 0.3-0.2 0.3-0.3 0.2-0.3 0.2-0.2 0.3-0.2 0.3-0.3 0.2-0.3 0.2-0.2 0.3h4l1.5-0.5 1.5-0.5 1-0.5 1-0.5 3-2q3-2 3.5-2.3l0.5-0.2v0.5l2.2 0.3q2.3 0.20001 3.6 0.70001 1.2 0.5 0.20001 2.3-1 1.7 0.79999 1.4 1.7-0.20001 2 1.3 0.20001 1.5 1.7 1.3l1.5-0.3 0.2-0.3 0.3-0.2 0.3 0.2 0.2 0.3 0.2 0.3 0.3 0.2 0.3-0.2 0.2-0.3 1-0.3 1-0.2v2l-1.5 0.2-1.5 0.3-0.2 0.3-0.3 0.2-0.3 0.2-0.2 0.3-0.2 0.3-0.3 0.2-0.3 0.2-0.2 0.3-1 0.5q-1 0.5-5.5 2.2-4.5 1.8-4.7 2.8-0.29999 1-10 5.2-9.8 4.3-14.8 5.8t-6 2l-1 0.5h-2l-0.2-0.3-0.3-0.2-0.3 0.2-0.2 0.3-0.2 0.3-0.3 0.2-0.3-0.2-0.2-0.3-1-0.5-1-0.5-0.2-0.3-0.3-0.2v-5q0-5 3-11l3-6 0.5-1 0.5-1 0.3-0.2 0.2-0.3-1.5-0.5-1.5-0.5-2.5-0.5q-2.5-0.5-5.5-0.79999-3-0.20001-3.2-1.2-0.29999-1-16-0.20001-15.8 0.70001-29.8 3.7t-22.5 6.5-28.5 13-21 10.8q-1 1.2-7 3.4-6 2.3-8 3.3l-2 1-0.2 0.3-0.3 0.2-0.3 0.2-0.2 0.3-1 0.5-1 0.5-1 0.5-1 0.5 0.2 0.3 0.3 0.2 0.3 0.2 0.2 0.3 1.5 0.5 1.5 0.5 1.5 0.5 1.5 0.5 11 3.5q11 3.5 13 3.8 2 0.20001 2.5 1 0.5 0.70001 10.3 3 9.7 2.2 13 2.7 3.2 0.5 3.2 1.5t2.5 0.79999q2.5-0.29999 15 2.7t17.5 3.3q5 0.20001 5 1.2 0 1 2.5 0.79999 2.5-0.29999 5.5-0.29999t24 0.70001q21 0.79999 21.5 1.6 0.5 0.70001 7.5 2.7t12.8 5.7q5.7 3.8 8.7 7.8t2.7 5.2q-0.20001 1.3-1.2 1.6-1 0.20001-2.8 3.7-1.7 3.5-3 5.5-1.2 2-2.4 2.5-1.3 0.5-1.6 1.5-0.20001 1-1.2 1-1 0-2.5 2.8-1.5 2.7-4 4.4-2.5 1.8-4.5 4.8t-15 12.2q-13 9.3-14.5 9.6-1.5 0.20001-1.5 1.2 0 1-2 1.2l-2 0.3h-1l-1-0.5-1-0.5-1-0.3-1-0.2-0.2-0.5-0.3-0.5-0.5-1-0.5-1-0.3-0.2-0.2-0.3-1-0.5-1-0.5 0.2-0.3 0.3-0.2 0.3-0.2 0.2-0.3 0.2-0.3 0.3-0.2 0.3-0.2 0.2-0.3 1.5-0.3q1.5-0.20001 1.5-1.2 0-1 2.8-1.5 2.7-0.5 3.4-1.7 0.79999-1.3 1.8-1 1 0.20001 1-0.79999t1-1.2l1-0.3-0.2-0.3-0.3-0.2-0.3-0.2q-0.20001-0.29999-1.2-0.59998-1-0.20001-1-2.2t-1-2h-1v-0.5l1-0.5 1-0.5 0.2-0.3 0.3-0.2 0.3-0.2 0.2-0.3 0.2-0.3 0.3-0.2 0.3-0.2 0.2-0.3 1-0.5q1-0.5 4.5-3.5t10.7-10.7l7.3-7.8 0.5-1 0.5-1 0.3-0.2 0.2-0.3 0.2-0.3 0.3-0.2 0.3-1 0.2-1-1-0.2-1-0.3-1-0.5-1-0.5-0.2-0.3-0.3-0.2-0.3-0.2-0.2-0.3-1.5-0.5q-1.5-0.5-2.5-1t-12-2.5l-11-2h-4l1 0.5 1 0.5 1 0.5 1 0.5 1 0.5 1 0.5 3 1.7q3 1.8 4.2 4.3 1.3 2.5 1.8 4.5l0.5 2v2l-0.5 2.5-0.5 2.5-0.3 0.5-0.2 0.5h-0.5l-0.3 0.2-0.2 0.3h-1l-0.2-0.3-0.3-0.2-0.3 0.2-0.2 0.3h-1l-0.2-0.3-0.3-0.2-0.5-1-0.5-1h-0.5l0.2-0.5 0.3-0.5v-8l-0.3-0.2q-0.20001-0.29999-0.70001-1.6-0.5-1.2-69.5-18.4-69-17.3-81.5-19.8t-42.5 6.5l-30 9-1.5 0.5-1.5 0.5-1.5 0.5-1.5 0.5h-3l0.2-0.3 0.3-0.2 0.3-0.2 0.2-0.3 1-0.5 1-0.5 1-0.5 1-0.5 1-0.5 1-0.5 0.2-0.3 0.3-0.2 0.3-0.2q0.20001-0.29999 9.7-6.8t19.3-16.2q9.7-9.8 15.2-18.8t6.8-17q1.2-8 6.7-8.8 5.5-0.70001 10.7-3.4 5.3-2.8 10.6-8.6 5.2-5.7 10-17l4.7-11.2 0.5-2 0.5-2 0.5-1.5zm186.2 44.3q-0.20001-0.29999 0-0.59998 0.29999-0.20001 0.29999 0.29999t-0.29999 0.29999zm2 0q-0.20001-0.29999 0-0.59998 0.29999-0.20001 0.29999 0.29999t-0.29999 0.29999zm-252 57.4q0.29999-0.20001 0.59998 0 0.20001 0.29999-0.29999 0.29999t-0.29999-0.29999zm197 64l0.3-0.2 0.3 0.2 0.2 0.3 0.2 0.3 0.3 0.2 0.3 1 0.2 1-1-0.2q-1-0.29999-1-1.3v-1l0.2-0.3zm0 4q0.29999-0.20001 0.59998 0l0.2 0.3h-0.5q-0.5 0-0.29999-0.29999zm-9 10q0.29999-0.20001 0.59998 0 0.20001 0.29999-0.29999 0.29999t-0.29999-0.29999z" stroke="#c8c3c4"/>
  <path d="m758.2 683h-0.20001l-0.5 0.2q-0.5 0.29999-0.5 0.59998v0.20001l-1-0.2-1-0.3-0.2-0.3-0.3-0.2-0.3 0.2-0.2 0.3-1.5 0.3q-1.5 0.20001-1.7-1.3-0.29999-1.5-3-1.3l-2.8 0.3-0.2-0.3-0.3-0.2-0.3-1-0.2-1h1.5q1.5 0 1.3-1-0.29999-1-2.6-1.2l-2.2-0.3v-1l0.2-0.3 0.3-0.2 0.3-0.2q0.20001-0.29999 1.2-0.79999 1-0.5 8.8-9.8 7.7-9.2 2.7-19.2t-11.7-16.8q-6.8-6.7-18.3-5-11.5 1.8-12.7 4.3-1.3 2.5-4.6 5.7-3.2 3.3-8.7 3.3t-10.7-4.3q-5.3-4.2-5.8-9.7t-3.8-6.3q-3.2-0.70001-26.7-1.2-23.5-0.5-29 1l-5.5 1.5-1 0.5-1 0.5-1 0.3-1 0.2 0.2 1 0.3 1 2.7 6.2q2.8 6.3 10 12.6 7.3 6.2 7.6 6.4l0.2 0.3 1 0.5 1 0.5 0.2 0.3 0.3 0.2 0.3 0.2 0.2 0.3 1 0.3 1 0.2v2l-2 0.2-2 0.3-2 0.5q-2 0.5-10 2.5l-8 2-2 0.3-2 0.2v-4l-2-0.2-2-0.3v-0.5l1.5-0.2 1.5-0.3 2.5-0.5q2.5-0.5 5.5-1l3-0.5 2.5-0.5 2.5-0.5-0.2-0.3-0.3-0.2-0.3-0.2-0.2-0.3-1-0.5-1-0.5-0.2-0.3-0.3-0.2-0.3-0.2-0.2-0.3-1-0.5-1-0.5-4.5-4q-4.5-4-6.7-8.3-2.3-4.2-2.6-11-0.20001-6.7 7.8-9.2t25-2.5 26.5 1 13.5 1.5l4 0.5 0.2 0.3 0.3 0.2v-2l-0.3-0.2-0.2-0.3-0.2-0.3-0.3-0.2-0.5-1-0.5-1-0.5-1-0.5-1-0.3-0.2-0.2-0.3-0.2-0.3-0.3-0.2-0.3-0.2q-0.20001-0.29999-4.7-4.8l-4.5-4.5-0.2-0.3-0.3-0.2-0.3-0.2-0.2-0.3-0.2-0.3-0.3-0.2-0.3-0.2-0.2-0.3-1-0.5-1-0.5-0.2-0.3-0.3-0.2-0.3-0.2-0.2-0.3-1-0.5-1-0.5h3l1 0.5 1 0.5 1 0.5 1 0.5 9.2 5.7q9.3 5.8 19 13 9.8 7.3 13.8 8.3t6.5 0.5 5.5-1l3-0.5 2-0.5 2-0.5-0.2-0.3-0.3-0.2-0.3-0.2-0.2-0.3-0.2-0.3-0.3-0.2-0.3-0.2-0.2-0.3-0.2-0.3-0.3-0.2-0.3-0.2-0.2-0.3-0.2-0.3-0.3-0.2-0.3-0.2-0.2-0.3-0.2-0.3-0.3-0.2-0.3-0.2q-0.20001-0.29999-11-14-10.7-13.8-57-24l-46.2-10.3-2-0.5-2-0.5v-0.5h4v-3l1 0.2 1 0.3 3.5 0.5q3.5 0.5 4.5 0.5h1l1.5 0.3 1.5 0.2v-2h-2q-2 0-2.8-2-0.70001-2-1-5l-0.2-3 3-0.5q3-0.5 3.5 0.29999 0.5 0.70001 2.5 1.2 2 0.5 3 1t5 1 5.2 0.79999q1.3 0.20001 1.8 1.2 0.5 1 0.79999 0 0.20001-1 3.7 0.20001 3.5 1.3 7.5 1.3t18.5 2.5 17.3 3.2q2.7 0.79999 3.4 0.59998 0.79999-0.29999 8.3 1.7t11.3 5.3q3.7 3.2 4 4.2 0.20001 1 1.2 1 1 0 2 2.5t2 2.5 3 4.2q2 4.3 4.2 6.6 2.3 2.2 2.6 3.2 0.20001 1 4 4.5 3.7 3.5 8.7 9t5.3 6.5q0.20001 1 1.4 2 1.3 1 2.6 3 1.2 2 3.4 4 2.3 2 5.3 6t3.7 5.2q0.79999 1.3 3 4 2.3 2.8 4.3 8.3t0 11.5-6.3 12.5q-4.2 6.5-5.4 7-1.3 0.5-1.6 1.5-0.20001 1-2.4 2.5-2.3 1.5-2.6 1.5zm-136-130.2q-0.20001-0.29999 0-0.59998 0.29999-0.20001 0.29999 0.29999t-0.29999 0.29999zm5 6q-0.20001-0.29999 0-0.59998 0.29999-0.20001 0.29999 0.29999v0.5l-0.3-0.2zm-13 4q-0.20001-0.29999 0-0.59998 0.29999-0.20001 0.29999 0.29999t-0.29999 0.29999zm2 1q-0.20001-0.29999 0-0.59998 0.29999-0.20001 0.29999 0.29999t-0.29999 0.29999zm131 117q-0.20001-0.29999 0-0.59998 0.29999-0.20001 0.29999 0.29999t-0.29999 0.29999z" stroke="#c8c5c7"/>
  <path d="m36 613h3l15.5 5.8q15.5 5.7 27 7.7t26.5 2h19.5q4.5 0 3 0.5l-1.5 0.5-1 0.5-1 0.5-1.5 0.5-1.5 0.5-1 0.5-1 0.5-7 3.5q-7 3.5-8 4l-1 0.5-1.5 0.5-1.5 0.5-1 0.5-1 0.5-1 0.5-1 0.5 1 0.5 1 0.5 9 1q9 1 34.5 0.5t56.5-5.5 42-7.5 13-3l2-0.5 2-0.5 2-0.5h2.5q2.5 0 1 0.5l-1.5 0.5-1.5 0.5-1.5 0.5-1.5 0.5-1.5 0.5-28 14q-28 14-50.5 29.5t-42 32-21 18-1.7 1.8l-0.3 0.2-0.3 0.2-0.2 0.3-0.2 0.3-0.3 0.2-0.3 0.2-0.2 0.3-0.2 0.3-0.3 0.2-0.3 0.2-0.2 0.3-0.2 0.3-0.3 0.2-0.3 0.2-0.2 0.3-0.2 0.3-0.3 0.2-0.3 0.2-0.2 0.3-0.2 0.3-0.3 0.2v2l0.3-0.2 0.2-0.3 0.2-0.3 0.3-0.2 0.3-0.2 0.2-0.3 2.5-0.5 2.5-0.5 2.5-0.5q2.5-0.5 12.5-2.5l10-2 2.5-0.5 2.5-0.5h4l-1 0.5-1 0.5-0.2 0.3-0.3 0.2-0.3 0.2-0.2 0.3-1 0.5-1 0.5-1 0.5-1 0.5-0.2 0.3-0.3 0.2-11.3 9.2q-11.2 9.3-22 21-10.7 11.8-13.7 16.8t0 15.5 3.3 12.5l0.2 2v7l-1.2-0.5q-1.3-0.5-1.8 1l-0.5 1.5-0.5 1.5-0.5 1.5-0.3 0.2-0.2 0.3-0.2 0.3-0.3 0.2-0.5-1-0.5-1-0.3-0.2-0.2-0.3-0.2-0.3-0.3-0.2-0.3 0.2-0.2 0.3-1 0.3-1 0.2-0.2-1q-0.3-1-0.60001-1h-0.2l-0.2-0.5q-0.3-0.5-0.60001-0.5h-0.2l-0.2-0.5q-0.3-0.5-0.60001-0.5h-0.4q-0.3 0-1-1.8-0.8-1.7-1-3.4-0.3-1.8-0.8-4.8t-1.5-6.5-2.3-4q-1.2-0.5-1-1.5 0.3-1-1.4-2.2-1.8-1.3-0.60001-4.6 1.3-3.2 2.6-5 1.2-1.7 2.7-4.4 1.5-2.8 2.5-3 1-0.29999 1.5-2 0.5-1.8 1.5-1.8t1.2-1.5q0.3-1.5 2-2.5 1.8-1 4.6-5 2.7-4 2-4.5-0.8-0.5-0.8-1.5t1.5-0.79999q1.5 0.29999 1.7-1l0.3-1.2-0.3-0.2q-0.2-0.29999 0-0.59998l0.3-0.2 0.3-0.2 0.2-0.3-1-0.5-1-0.5-1-0.5q-1-0.5-1.5-1.8-0.5-1.2-1.5-1.4-1-0.29999-2.5 0.20001t-2-1.2q-0.5-1.8-3-2.3l-2.5-0.5 0.2-1 0.3-1 0.3-0.2 0.2-0.3-0.2-0.3-0.3-0.2-0.3-0.2-0.2-0.3 1-0.5 1-0.5 0.2-0.3q0.3-0.20001 0.60001-0.40002 0.2-0.29999 0.39999-2.6 0.3-2.2 4-5.4 3.8-3.3 6-4.6 2.3-1.2 2.6-3 0.2-1.7 4-4 3.7-2.2 5.2-5.2t3.2-3.5q1.8-0.5 1.8-1.5t2-1.5 4.5-4.5 5-4.5 2.5-1.5 1-1.2q1-0.29999 1.5-1.6 0.5-1.2 1.5-1.4 1-0.29999 3.5-3 2.5-2.8 3.5-2.8t1-1 1.5-0.79999q1.5 0.29999 2.5-2 1-2.2 4-3 3-0.70001 3.8-2 0.7-1.2-1-1.2-1.8 0-1.8-1t2-2.2l2-1.3 1-0.5 1-0.5 1-0.5 1-0.5 0.2-0.3 0.3-0.2 0.3-0.2 0.2-0.3-1-0.3-1-0.2v-2l-6 0.2q-6 0.29999-22.2 0-16.3-0.20001-21.8-0.70001t-9.2-0.5q-3.8 0-4-1-0.3-1-9-1.8-8.8-0.70001-9.3-1.4-0.5-0.79999-2.5-1l-2-0.3-1-0.5-1-0.5-2-0.5-2-0.5 0.2-0.3 0.3-0.2 0.5-1 0.5-1 0.3-0.2 0.2-0.3 0.2-0.3q0.3-0.20001 1.8-1.7t2.2-2.3l0.8-0.7 0.2-0.3 0.3-0.2 0.3-0.2 0.2-0.3 0.2-0.3 0.3-0.2 0.3-0.2 0.2-0.3-0.2-0.3-0.3-0.2-0.3-0.2-0.2-0.3-0.2-0.3-0.3-0.2-0.3-0.2-0.2-0.3-0.2-0.3-0.3-0.2-0.3 0.2-0.2 0.3h-2.5q-2.5 0-4.5-0.29999-2-0.20001-2-1.2 0-1-1-0.79999-1 0.29999-15-4.7l-14-5-1-0.5-1-0.5-0.2-0.3-0.3-0.2-0.3-0.2-0.2-0.3v-0.5l0.2-1 0.3-1 0.3 0.2 0.2 0.3 0.2 0.3 0.3 0.2 0.3 0.2 0.2 0.3h1l0.2-0.3 0.3-0.2 0.3 0.2 0.2 0.3h1l0.2-0.3 0.3-0.2 0.3-0.2 0.2-0.3-0.2-0.3-0.3-0.2-0.3-0.2-0.2-0.3-1-0.3q-1-0.20001-2.2-2.2-1.3-2-0.8-3t2.2-2.8q1.8-1.7 1.8-3.4 0-1.8 3-1.8zm122.2 51.2q0.3-0.20001 0.60001 0 0.2 0.29999-0.3 0.29999t-0.3-0.29999zm-3.2 7.8l2-0.5 0.2 0.3 0.3 0.2 0.3 0.2 0.2 0.3-0.2 0.3-0.3 0.2-0.3 0.2-0.2 0.3h-0.5q-0.5 0-2-0.5t0.5-1zm-49 63q1 0 1 1t-1 1h-1v-1q0-1 1-1z" stroke="#e7e7e8"/>
 </g>
</svg>
