<?xml version="1.0" encoding="UTF-8" standalone="no" ?>
<!DOCTYPE svg PUBLIC "-//W3C//DTD SVG 1.1//EN" "http://www.w3.org/Graphics/SVG/1.1/DTD/svg11.dtd">
<svg xmlns="http://www.w3.org/2000/svg" xmlns:xlink="http://www.w3.org/1999/xlink" version="1.1" width="700" height="850" viewBox="0 0 700 850" xml:space="preserve">
<desc>Created with Fabric.js 5.3.0</desc>
<defs>
</defs>
<g transform="matrix(3.3242117166 0 0 -2.811585737 350 425.4506411111)" id="m_ztoEjwPVNLoLF8NOIdD"  >
<path style="stroke: none; stroke-width: 1; stroke-dasharray: none; stroke-linecap: butt; stroke-dashoffset: 0; stroke-linejoin: miter; stroke-miterlimit: 4; fill: rgb(35,31,32); fill-rule: nonzero; opacity: 1;"  transform=" translate(0.001, 0.0010005)" d="M -54.812 -24.25 C -54.156 -25.711 -53.65 -28.146 -55.782999999999994 -30.586 C -55.782999999999994 -30.586 -50.49399999999999 -28.259999999999998 -52.071999999999996 -23.378999999999998 C -50.91799999999999 -22.554999999999996 -50.49699999999999 -21.211 -51.163999999999994 -19.544999999999998 C -48.254999999999995 -19.397 -45.23799999999999 -19.165999999999997 -42.227999999999994 -18.822 C -45.056 -17.907999999999998 -46.74399999999999 -16.326 -46.84199999999999 -16.232 L -50.95899999999999 -12.280999999999999 L -45.45799999999999 -13.800999999999998 C -44.40699999999999 -14.091999999999999 -43.28799999999999 -14.238999999999999 -42.13499999999999 -14.238999999999999 C -34.93899999999999 -14.238999999999999 -27.40699999999999 -8.506999999999998 -25.96999999999999 -3.7589999999999986 C -25.391999999999992 -1.8509999999999986 -25.86099999999999 -0.4249999999999985 -27.40199999999999 0.6000000000000014 C -29.24999999999999 1.8340000000000014 -31.26599999999999 2.4570000000000016 -33.39599999999999 2.4570000000000016 C -38.22399999999999 2.4570000000000016 -42.16099999999999 -0.7209999999999983 -42.198999999999984 -0.7539999999999982 L -47.34699999999998 -4.974999999999998 L -44.41099999999998 0.9940000000000024 C -43.37199999999998 3.1070000000000024 -41.92499999999998 4.836000000000002 -40.13199999999998 6.146000000000003 C -41.281999999999975 5.888000000000003 -42.55099999999997 5.564000000000003 -43.94799999999998 5.177000000000002 C -48.48199999999998 1.602000000000002 -55.470999999999975 -3.099999999999997 -63.16999999999998 -5.298999999999999 C -66.75399999999998 -5.597999999999999 -71.76599999999998 -4.909999999999998 -74.54499999999999 0.35900000000000176 C -76.66799999999999 4.388000000000002 -79.59299999999999 4.966000000000002 -81.80899999999998 3.9210000000000016 C -84.62199999999999 6.1960000000000015 -89.50199999999998 8.612000000000002 -94.58699999999999 4.048000000000002 C -94.58699999999999 4.048000000000002 -89.48299999999999 7.109000000000002 -84.234 1.6890000000000018 C -85.17299999999999 0.10700000000000176 -85.35499999999999 -1.9159999999999981 -84.16499999999999 -3.6469999999999985 C -83.14399999999999 -5.132999999999998 -81.59599999999999 -6.738999999999999 -79.64099999999999 -8.156999999999998 C -80.529 -7.695999999999998 -81.40899999999999 -7.068999999999998 -82.25999999999999 -6.2429999999999986 C -85.52499999999999 -3.0709999999999984 -88.48499999999999 -3.4269999999999987 -90.27 -5.1019999999999985 C -93.649 -3.8109999999999986 -99.038 -3.0199999999999987 -102.46 -8.935999999999998 C -102.46 -8.935999999999998 -98.553 -4.445999999999998 -91.88499999999999 -7.9769999999999985 C -92.288 -9.771999999999998 -91.835996 -11.751999999999999 -90.16799999999999 -13.029999999999998 C -88.11899999999999 -14.601999999999997 -84.969 -16.072999999999997 -81.31599999999999 -16.694 C -82.21999999999998 -16.677999 -83.17499999999998 -16.548 -84.19299999999998 -16.258 C -88.57299999999998 -15.015999999999998 -91.00899999999999 -16.735 -91.78299999999999 -19.058999999999997 C -95.36999999999999 -19.525999999999996 -100.48799999999999 -21.388999999999996 -100.69299999999998 -28.218999999999998 C -100.69299999999998 -28.218999999999998 -99.38399999999999 -22.413999999999998 -91.83899999999998 -22.354 C -91.34299999999999 -24.125 -90.00499999999998 -25.655 -87.92999999999998 -25.987 C -87.79599999999998 -26.010001 -87.65399999999998 -26.022 -87.51699999999998 -26.041999999999998 C -86.16199999999998 -26.458 -84.21199999999997 -26.456 -82.07099999999998 -26.166999999999998 C -81.56799999999998 -27.2 -75.12299999999999 -28.215999999999998 -70.73599999999999 -23.529999999999998 C -69.01299999999999 -21.689999999999998 -67.42399999999999 -20.916999999999998 -66.06099999999999 -20.705999999999996 C -65.851 -20.701999999999995 -65.64600999999999 -20.708000999999996 -65.446 -20.725999999999996 C -64.605 -20.998999999999995 -63.733 -21.389999999999997 -62.839999999999996 -21.926999999999996 C -59.83 -23.731999999999996 -56.98 -24.405999999999995 -54.812 -24.249999999999996 z M -66.648 69.256 C -68.169 68.221 -69.193 66.465 -68.84899999999999 64.393 C -68.82700399999999 64.258 -68.79399999999998 64.12 -68.768998 63.985 C -68.733003 62.565 -68.110998 60.719 -67.155998 58.782 C -67.97599799999999 57.974999999999994 -66.88999799999999 51.541999999999994 -61.05399799999999 48.872 C -58.76199799999999 47.823 -57.522997999999994 46.561 -56.888997999999994 45.339 C -56.81999799999999 45.14 -56.760997999999994 44.943 -56.711997999999994 44.747 C -56.70399499999999 43.862 -56.798995999999995 42.913 -57.02399799999999 41.893 C -57.77999799999999 38.467 -57.51299799999999 35.549 -56.67699799999999 33.545 C -57.85299799999999 32.457 -60.00099799999999 31.203000000000003 -62.99099799999999 32.451 C -62.99099799999999 32.451 -59.10399799999999 28.176000000000002 -54.976997999999995 31.222 C -53.82899799999999 30.39 -52.421997999999995 30.417 -51.052997999999995 31.579 C -49.816998 28.427 -48.423998 25.175 -46.894997999999994 22.009 C -43.51799799999999 25.28 -38.98499799999999 27.591 -33.134997999999996 29.025 C -29.626997999999997 29.884 -25.897997999999994 30.360999999999997 -22.214997999999994 30.673 C -26.831997999999995 33.384 -35.74899799999999 39.314 -41.360997999999995 47.491 C -42.784997999999995 50.794 -43.723997999999995 55.762 -39.610997999999995 60.073 C -36.46599799999999 63.368 -36.847998 66.325 -38.543997999999995 68.094 C -37.280998 71.48299999999999 -36.53899799999999 76.87899999999999 -42.48399799999999 80.24799999999999 C -42.48399799999999 80.24799999999999 -37.958997999999994 76.38099999999999 -41.42999799999999 69.684 C -43.22999799999999 70.071 -45.20399799999999 69.6 -46.467997999999994 67.92 C -47.551998 66.481 -48.580997999999994 64.502 -49.305997999999995 62.195 C -49.149998 63.185 -48.836997999999994 64.218 -48.321997999999994 65.289 C -46.35299799999999 69.393 -47.63099799999999 72.086 -49.790997999999995 73.245 C -49.637997999999996 76.85900000000001 -50.60299799999999 82.221 -57.296997999999995 83.586 C -57.296997999999995 83.586 -51.798998 81.307 -53.02699799999999 73.863 C -54.857997999999995 73.675 -56.59099799999999 72.618 -57.272997999999994 70.631 C -58.110997999999995 68.188 -58.50499799999999 64.735 -57.93299799999999 61.072 C -58.20399799999999 61.935 -58.385997999999994 62.884 -58.43499799999999 63.939 C -58.649998 68.488 -61.05199799999999 70.25 -63.50299799999999 70.244 C -65.08499799999998 73.498 -68.47799799999999 77.759 -75.018998 75.781 C -75.021005 75.782999 -69.101998 76.38900000000001 -66.647998 69.256 z M 91.882 99.344 C 94.08500000000001 101.55499999999999 97.714 103.52099999999999 102.458 100.267 C 102.458 100.267 100.388 105.55 92.767 105.426 C 92.767 105.426 109.21 111.402 88.216 150.23000000000002 C 88.216 150.23000000000002 73.704 120.09200000000001 83.05399999999999 106.11800000000002 C 83.05399999999999 106.11800000000002 79.45199999999998 109.24300000000002 74.54999999999998 104.61700000000002 C 74.54999999999998 104.61700000000002 82.88199999999998 104.05200000000002 85.64199999999998 96.30500000000002 C 85.64399899999998 96.14300000000001 85.65000299999998 95.97700000000002 85.65000299999998 95.81500000000003 C 85.65200199999998 83.38700000000003 80.07200299999998 73.62900000000002 73.02800299999998 62.78600000000002 C 71.99200299999998 61.188000000000024 70.92500299999999 59.56700000000002 69.84500299999999 57.91700000000002 C 68.765003 59.56700000000002 67.697003 61.188000000000024 66.661003 62.78600000000002 C 59.618002999999995 73.63000000000002 54.036002999999994 83.38800000000002 54.04000299999999 95.81500000000003 C 54.04000299999999 96.15300000000002 54.04600399999999 96.49600000000002 54.055001999999995 96.83800000000002 C 56.999002 104.07200000000002 64.93700199999999 104.61600000000003 64.93700199999999 104.61600000000003 C 60.034001999999994 109.24200000000003 56.43500199999999 106.11700000000003 56.43500199999999 106.11700000000003 C 65.78500199999999 120.09200000000003 51.27100199999999 150.22900000000004 51.27100199999999 150.22900000000004 C 30.27700199999999 111.40100000000004 46.72200199999999 105.42500000000004 46.72200199999999 105.42500000000004 C 39.10000199999999 105.54900000000004 37.03100199999999 100.26600000000003 37.03100199999999 100.26600000000003 C 41.69700199999998 103.46800000000003 45.282001999999984 101.61800000000004 47.49400199999999 99.45300000000003 C 45.87500199999999 99.96900000000004 43.52700199999999 99.90000000000003 40.50000199999999 97.68900000000004 C 40.50000199999999 97.68900000000004 46.75500199999999 99.37200000000004 48.67900199999999 91.91600000000004 C 49.48100199999999 88.81200000000004 50.70100199999999 84.70600000000005 52.44000199999999 80.31200000000004 C 54.921001999999994 73.29000000000003 58.829001999999996 66.90000000000003 63.030001999999996 60.430000000000035 C 64.420002 58.29100000000003 65.84400199999999 56.137000000000036 67.27000199999999 53.942000000000036 C 61.83600199999999 45.442000000000036 56.384001999999995 35.94000000000004 52.93100199999999 24.055000000000035 C 50.64400199999999 16.182000000000034 49.70900199999999 9.203000000000035 49.70900199999999 3.0690000000000346 C 49.70300099999999 -9.719999999999965 53.79500199999999 -18.817999999999966 57.92800199999999 -24.653999999999964 C 59.23100199999999 -26.495999999999963 60.531001999999994 -28.007999999999964 61.70800199999999 -29.227999999999966 C 60.04700199999999 -29.747999999999966 58.14500199999999 -31.299999999999965 56.454001999999996 -35.07399999999997 C 56.454001999999996 -35.07399999999997 61.918001999999994 -33.49199999999997 65.789002 -37.77099999999997 C 64.923002 -42.76299999999997 63.329001999999996 -45.821999999999974 61.653001999999994 -47.62499999999997 C 60.51700199999999 -48.84999999999997 59.31600199999999 -49.60199999999997 57.990002 -50.10199999999997 C 56.668001999999994 -50.59599999999997 55.203002 -50.81699999999997 53.675002 -50.81699999999997 C 51.500002 -50.82300099999997 49.227002 -50.35599999999997 47.291002 -49.76799999999997 C 45.341001999999996 -40.49999999999997 33.349002 -32.98799999999997 24.386001999999998 -28.33999999999997 C 13.943001999999998 -22.925999999999974 11.824001999999998 -14.163999999999971 15.271001999999998 -4.372999999999973 C 16.119002 -6.370999999999973 17.007001999999996 -8.138999999999973 17.773001999999998 -9.458999999999973 C 21.742002 -16.31399999999997 27.995002 -13.187999999999974 27.995002 -13.187999999999974 C 21.500002 -11.384999999999973 22.704002 -7.656999999999974 23.426002 1.8450000000000255 C 23.614002 4.320000000000025 23.416002 6.505000000000026 23.024002 8.392000000000024 C 23.372002 7.706000000000024 23.710002 7.081000000000024 24.027002 6.535000000000024 C 27.996002 -0.3199999999999763 34.249002 2.806000000000024 34.249002 2.806000000000024 C 27.755001999999998 4.611000000000024 28.958001999999997 8.337000000000025 29.679001999999997 17.837000000000025 C 29.833001999999997 19.864000000000026 29.730002999999996 21.696000000000026 29.472001999999996 23.329000000000025 C 29.624001999999997 23.048000000000027 29.775001999999997 22.778000000000027 29.920001999999997 22.528000000000027 C 33.888002 15.673000000000027 40.143001999999996 18.799000000000028 40.143001999999996 18.799000000000028 C 33.649001999999996 20.60200000000003 34.851001999999994 24.330000000000027 35.572002 33.83200000000003 C 35.596999999999994 34.15200000000003 35.615001 34.46700000000003 35.625999 34.77700000000003 C 38.888999 33.20700000000003 42.065999 34.79299900000003 42.065999 34.79299900000003 C 35.571999 36.59599900000003 36.774998999999994 40.32599900000003 37.497999 49.82399900000003 C 38.054999 57.15999900000003 35.241999 61.983999000000026 33.931999 63.80299900000003 C 38.931999 65.33999900000003 41.191998999999996 69.53299900000003 37.054998999999995 72.35399900000003 C 33.66599899999999 74.66499900000002 30.167998999999995 74.60399900000003 27.445998999999993 73.91999900000003 C 30.585998999999994 76.25799900000003 30.162998999999992 79.08699900000003 30.162998999999992 79.08699900000003 C 22.625998999999993 72.35399900000003 15.089998999999992 72.51299900000004 7.7139989999999905 74.91799900000004 C 0.33499899999999094 77.32399900000004 -7.201001000000009 77.80699900000003 -7.040001000000009 72.51499900000003 C -7.038001000000009 72.46399600000004 -7.029001000000009 72.41699900000003 -7.026001000000009 72.36699900000004 C -9.682001000000009 71.88899900000004 -16.58800100000001 69.89499900000004 -21.793001000000007 61.77199900000004 C -21.793001000000007 61.77199900000004 -19.868001000000007 61.93199900000003 -18.42500100000001 59.525999000000034 C -16.982001000000007 57.12199900000003 -19.86800100000001 51.34999900000003 -11.37000100000001 48.625999000000036 C -11.37000100000001 48.625999000000036 -13.614001000000009 50.387999000000036 -11.210001000000009 52.31399900000004 C -8.80500100000001 54.235999000000035 -4.154001000000009 49.90599900000004 1.7779989999999906 55.99999900000004 C 1.7779989999999906 55.99999900000004 0.8149989999999906 52.79299900000004 -0.7880010000000093 52.15199900000004 C -0.7880010000000093 52.15199900000004 3.541998999999991 45.256999000000036 -1.9100010000000094 39.16399900000004 C -1.9100010000000094 39.16399900000004 -0.7880010000000093 40.768999000000036 -1.7490010000000094 42.37099900000004 C -2.7100010000000094 43.972999000000044 -5.118001000000009 39.966999000000044 -10.247001000000008 43.17199900000004 C -15.376001000000006 46.37699900000004 -15.700001000000007 40.28499900000004 -13.454001000000009 32.75199900000004 C -13.454001000000009 32.75199900000004 -12.813001000000009 34.67399900000004 -10.890001000000009 35.63899900000004 C -8.965001000000008 36.597999000000044 -2.391001000000008 31.94999900000004 3.060998999999992 36.75999900000004 C 3.433998999999992 37.087999000000046 3.8519989999999917 37.407999000000046 4.300998999999992 37.722999000000044 C 4.939998999999992 35.36199900000005 4.552998999999992 31.347999000000044 -4.797001000000009 30.345999000000045 C -18.26600100000001 28.902999000000044 -38.79000100000001 30.986999000000047 -48.08900100000001 18.478999000000044 C -48.08900100000001 18.478999000000044 -42.31800100000001 23.931999000000044 -34.301001000000014 22.650999000000045 C -34.301001000000014 22.650999000000045 -40.072001000000014 22.328999000000046 -45.04300100000002 18.800999000000044 C -50.01400100000002 15.272999000000041 -55.78500100000002 10.622999000000043 -61.39800100000002 14.310999000000043 C -67.01100100000002 17.998999000000044 -57.38900100000002 8.058999000000043 -47.92800100000002 12.706999000000042 C -47.92800100000002 12.706999000000042 -60.91700100000003 3.727999000000043 -69.57400100000002 10.142999000000042 C -69.57400100000002 10.142999000000042 -65.24500100000003 0.040999000000041974 -51.13600100000002 4.529999000000042 C -37.02500100000002 9.019999000000041 -32.53600100000002 9.340999000000043 -26.122001000000022 7.256999000000041 C -26.122001000000022 7.256999000000041 -38.30800100000002 10.143999000000042 -43.11800100000002 0.36099900000004137 C -43.11800100000002 0.36099900000004137 -34.78000100000002 7.256999000000041 -26.602001000000023 1.8039990000000414 C -18.424001000000022 -3.6450009999999584 -33.65800100000002 -18.55700099999996 -45.84300100000002 -15.190000999999958 C -45.84300100000002 -15.190000999999958 -41.83400100000002 -19.03800099999996 -35.74000100000002 -17.75600099999996 C -35.74000100000002 -17.75600099999996 -42.63600100000002 -34.43200099999996 -27.56400100000002 -36.356000999999964 C -27.56400100000002 -36.356000999999964 -38.14600100000002 -29.942000999999962 -28.205001000000017 -19.360000999999965 C -28.205001000000017 -19.360000999999965 -33.816001000000014 -29.622000999999965 -25.158001000000016 -31.706000999999965 C -25.158001000000016 -31.706000999999965 -28.635001000000017 -28.327000999999964 -23.847001000000017 -22.741000999999965 C -27.634001000000016 -31.346000999999966 -12.843001000000017 -37.249000999999964 -3.1520010000000163 -39.401000999999965 C 8.753998999999984 -42.047000999999966 19.335998999999983 -48.663000999999966 19.335998999999983 -48.663000999999966 C 17.376998999999984 -54.25300099999997 17.815998999999984 -59.49500099999997 19.796998999999982 -63.38200099999997 C 19.460998999999983 -63.83900099999997 19.076998999999983 -64.38000099999996 18.663998999999983 -65.01500099999997 C 15.352998999999983 -68.70600099999997 9.109998999999982 -77.55000099999997 12.360998999999982 -89.10900099999998 C 16.690998999999984 -104.50400099999997 14.445998999999983 -111.71800099999999 14.445998999999983 -111.71800099999999 C 14.445998999999983 -111.71800099999999 18.272998999999984 -107.88800099999999 18.29099899999998 -101.02500099999999 C 18.265998999999983 -101.90000099999999 18.081998999999982 -114.681001 30.15999899999998 -116.84700099999999 C 30.15999899999998 -116.84700099999999 23.264998999999982 -113.96200099999999 22.942998999999983 -104.023001 C 22.942998999999983 -104.023001 26.951998999999983 -115.40600099999999 41.38199899999998 -108.99200099999999 C 41.38199899999998 -108.99200099999999 32.81399899999998 -108.63500099999999 29.38199899999998 -103.85700099999998 C 32.68099899999998 -105.65000099999999 39.809998999999976 -107.95900099999999 47.95599899999998 -100.97400099999999 C 47.95599899999998 -100.97400099999999 42.22899899999997 -102.20100099999999 37.47299899999997 -100.40600099999999 C 45.020998999999975 -98.705001 51.764998999999975 -93.312001 54.36999899999997 -89.75200099999999 C 57.75499899999997 -85.125001 64.30799899999997 -89.63500099999999 65.38499899999997 -97.461001 C 64.77799899999997 -103.623001 62.43299899999997 -114.738001 53.40699899999996 -115.086001 C 43.701998999999965 -115.461001 39.308998999999964 -116.027001 37.75299899999996 -119.035001 C 35.10099899999996 -119.43699099999999 27.51699899999996 -121.42400099999999 27.91399899999996 -130.96100099999998 C 27.91399899999996 -130.96100099999998 29.222998999999962 -124.30100099999999 37.25799899999996 -123.59000099999999 C 38.02299899999996 -125.81100099999999 40.93599899999996 -127.24000099999999 44.76699899999996 -127.11300099999998 C 43.268998999999965 -128.226001 42.055998999999964 -129.47200099999998 41.542998999999966 -130.79900099999998 C 41.06899899999997 -132.022001 41.082998999999965 -133.25200099999998 41.489001999999964 -134.31100099999998 C 39.738001999999966 -136.62000099999997 36.00600199999997 -143.04100099999997 42.59400199999996 -149.53600099999997 C 42.59400199999996 -149.53600099999997 38.76200199999996 -143.38400099999998 44.96800199999996 -137.17100099999996 C 47.217001999999965 -137.65100099999995 50.29500199999996 -136.86799099999996 53.729001999999966 -133.84700099999995 C 54.205001999999965 -133.42900099999994 54.65700199999996 -133.00900099999996 55.09000199999996 -132.59300099999996 C 54.79500199999996 -133.76900099999995 54.63900199999996 -134.94800099999995 54.690001999999964 -136.09300099999996 C 54.78399999999996 -138.12400099999996 55.71600199999997 -139.35500099999996 57.03000199999997 -139.85900099999995 C 57.321001999999964 -142.98800099999994 58.979001999999966 -149.64400099999995 67.77100199999997 -150.23200099999994 C 67.77100199999997 -150.23200099999994 60.86700199999997 -148.07600099999993 61.497001999999966 -139.33900099999994 C 63.94100199999997 -138.07300099999995 66.25200199999996 -135.31000099999994 66.87800199999997 -131.28000099999994 C 68.32000199999996 -121.98100099999994 77.78000199999997 -110.59600099999994 85.47800199999998 -109.63500099999995 C 85.47800199999998 -109.63500099999995 83.23200199999998 -107.39100099999995 79.38400199999998 -107.70900099999994 C 79.38400199999998 -107.70900099999994 84.99500199999999 -104.02300099999994 91.08900199999998 -111.23600099999994 C 91.08900199999998 -111.23600099999994 90.60900199999998 -104.50200099999995 82.75100199999999 -102.73800099999994 C 82.75100199999999 -102.73800099999994 87.72200199999999 -101.61700099999995 89.48500199999998 -98.89000099999994 C 89.48500199999998 -98.89000099999994 81.03200199999998 -90.10700099999994 86.72900199999998 -72.08700099999994 C 89.60400199999998 -74.26100099999995 91.40900199999999 -78.52600099999995 91.40900199999999 -78.52600099999995 C 90.28600199999998 -59.12400099999995 76.17700199999999 -60.88900099999995 76.17700199999999 -60.88900099999995 C 78.101002 -59.12300099999995 83.55400199999998 -58.80500099999995 83.55400199999998 -58.80500099999995 C 69.81700199999999 -56.330000999999946 60.38400199999998 -63.30700099999995 56.79100199999998 -66.61900099999994 C 54.362001999999976 -68.32000099999993 51.66300199999998 -70.36100099999994 48.59800199999998 -72.75400099999995 C 38.84600199999998 -80.35900099999995 35.26300199999998 -74.79900099999995 36.76500199999998 -68.04700099999995 C 38.71100199999998 -66.95300099999996 40.69700199999998 -65.36500099999995 42.66500199999998 -63.21500099999995 C 44.43800199999998 -61.27400099999995 45.67200199999998 -59.37900099999995 46.46200199999998 -57.52700099999995 C 48.603001999999975 -58.086000999999946 51.054001999999976 -58.50600099999995 53.676001999999976 -58.51100099999995 C 55.93100199999998 -58.51100099999995 58.32500199999998 -58.19100099999995 60.68700199999998 -57.30800099999995 C 64.23700199999998 -56.007000999999946 67.62800199999998 -53.324000999999946 69.96800199999998 -49.18900099999995 C 71.60900199999999 -46.312000999999945 72.79200199999998 -42.78900099999995 73.47600199999998 -38.48400099999995 C 77.35500199999998 -33.31600099999995 83.40800199999998 -35.07200099999995 83.40800199999998 -35.07200099999995 C 81.67200199999998 -31.19500099999995 79.71100199999998 -29.66200099999995 78.01700199999998 -29.187000999999952 C 79.18500199999998 -27.972000999999953 80.47000199999998 -26.47400099999995 81.76100199999998 -24.652000999999952 C 85.89400199999997 -18.81600099999995 89.98600199999997 -9.718000999999953 89.97800199999998 3.0709990000000467 C 89.97800199999998 9.205999000000046 89.04400199999998 16.183999000000046 86.75700199999997 24.056999000000047 C 83.30400199999997 35.941999000000045 77.85300199999998 45.44399900000005 72.41900199999998 53.94399900000005 C 73.84500199999998 56.13899900000005 75.26900199999997 58.29399900000005 76.65900199999997 60.43199900000005 C 80.86600199999997 66.91399900000005 84.78200199999998 73.31799900000004 87.26400199999998 80.35499900000005 C 88.99400199999998 84.73399900000005 90.20900199999997 88.82499900000005 91.00600199999998 91.91799900000005 C 92.93200199999998 99.37399900000005 99.18400199999998 97.69099900000005 99.18400199999998 97.69099900000005 C 95.96000199999997 100.04499900000005 93.50500199999998 99.96899900000005 91.88200199999997 99.34399900000005 z M 30.479000000000006 67.865 C 32.836000000000006 69.476 32.781000000000006 70.633 31.420000000000005 71.283 C 33.697 70.904 35.041000000000004 70.06400000000001 34.32600000000001 68.828 C 32.894000000000005 66.355 28.931000000000008 66.099 25.68800000000001 66.26400000000001 C 27.29000000000001 66.34999900000001 28.92900000000001 66.80700000000002 30.47900000000001 67.86500000000001 z M -3.353999999999992 67.705 C -3.353999999999992 67.705 1.9370000000000083 69.469 7.229000000000008 67.705 C 12.520000000000008 65.943 15.727000000000007 66.742 15.727000000000007 66.742 C 15.727000000000007 66.742 12.840000000000007 62.894000000000005 7.709000000000007 62.894000000000005 C 2.580000000000007 62.894999000000006 6.267000000000007 67.86500000000001 -3.353999999999994 67.70500000000001 z M 82.59900000000002 22.848 C 84.78500000000003 15.328 85.65000000000002 8.764 85.65000000000002 3.068999999999999 C 85.64399600000002 -8.423000000000002 82.14200000000002 -16.41 78.57000000000002 -21.656000000000002 C 77.14400000000002 -23.750000000000004 75.70300000000002 -25.396 74.46600000000002 -26.633000000000003 C 74.08300000000003 -25.209000000000003 73.14800000000002 -23.635 71.17600000000002 -22.135 C 71.17600000000002 -22.135 71.64700000000002 -25.811 70.05400000000002 -29.069000000000003 L 69.80800000000002 -29.069000000000003 C 68.21600000000002 -25.811000000000003 68.68700000000003 -22.135 68.68700000000003 -22.135 C 66.65200000000003 -23.684 65.72200000000002 -25.311 65.36300000000003 -26.772000000000002 C 64.09600000000003 -25.520000000000003 62.60100000000003 -23.831000000000003 61.11800000000003 -21.657000000000004 C 57.54900000000003 -16.411 54.04700000000003 -8.425000000000004 54.04100000000003 3.067999999999998 C 54.04100000000003 8.762999999999998 54.906000000000034 15.327999999999998 57.09100000000003 22.846999999999998 C 60.14900000000003 33.385999999999996 64.88300000000002 42.010999999999996 69.84600000000003 49.919 C 74.81000000000003 42.012 79.54000000000003 33.387 82.59900000000003 22.847999999999995 z M 10.509000000000015 -89.632 C 9.503000000000014 -86.05600000000001 9.349000000000014 -82.718 9.714000000000015 -79.68700000000001 C 8.153000000000015 -79.08000000000001 6.4850000000000145 -78.44900000000001 4.696000000000015 -77.787 C -13.575999999999983 -71.021 3.997000000000015 -60.09400000000001 15.364000000000015 -66.027 C 16.008000000000013 -65.156 16.615000000000016 -64.425 17.132000000000016 -63.843 C 17.279000000000014 -63.620000000000005 17.429000000000016 -63.398 17.581000000000017 -63.17700000000001 C 15.890000000000017 -59.163000000000004 15.698000000000018 -54.32300000000001 17.040000000000017 -49.54600000000001 C 15.311000000000018 -48.55800000000001 11.947000000000017 -46.739000000000004 7.737000000000016 -44.974000000000004 C 5.296000000000016 -45.587 2.5490000000000164 -46.74700000000001 -0.5339999999999847 -48.593 C -0.5339999999999847 -48.593 -2.076999999999985 -48.30800000000001 -4.463999999999984 -48.255 C -9.344999999999985 -47.378 -20.151999999999987 -46.722 -28.272999999999985 -55.564 C -39.08799999999999 -67.343 -46.405999999999985 -69.228 -46.405999999999985 -69.228 C -46.405999999999985 -69.228 -41.26699999999998 -70.437 -35.50799999999998 -67.00699999999999 C -37.22699999999998 -68.064 -46.76199999999998 -74.517 -42.50799999999998 -85.28999999999999 C -42.50799999999998 -85.28999999999999 -43.67799999999998 -77.90899999999999 -35.39199999999998 -72.407 C -35.39199999999998 -72.407 -42.96599999999998 -81.803 -29.921999999999983 -90.704 C -29.921999999999983 -90.704 -34.12299999999998 -83.229 -31.864999999999984 -77.79799999999999 C -31.653999999999986 -81.54599999999999 -29.868999999999986 -88.823 -19.643999999999984 -92.08099999999999 C -19.643999999999984 -92.08099999999999 -23.696999999999985 -87.85399999999998 -24.672999999999984 -82.86399999999999 C -19.256999999999984 -88.38699999999999 -11.123999999999985 -91.28799999999998 -6.725999999999985 -91.63399999999999 C -1.0099999999999847 -92.07899999999998 -1.3999999999999853 -100.02299999999998 -7.487999999999985 -105.05399999999999 C -13.049999999999986 -107.78099999999999 -23.737999999999985 -111.63199999999999 -28.778999999999986 -104.13799999999999 C -34.201999999999984 -96.077 -36.99599999999999 -92.63999999999999 -40.37099999999999 -92.89999999999999 C -42.10899999999999 -90.85499999999999 -47.78899999999999 -85.451 -55.68699999999999 -90.80199999999999 C -55.68699999999999 -90.80199999999999 -49.334999999999994 -88.41099999999999 -44.50699999999999 -94.874 C -45.99099999999999 -96.69 -45.67799999999999 -99.92099999999999 -43.55399999999999 -103.112 C -45.28899999999999 -102.42399999999999 -46.98599999999999 -102.048 -48.383999999999986 -102.309 C -49.67299999999999 -102.54899999999999 -50.71299999999999 -103.209 -51.399999999999984 -104.112 C -54.28299999999999 -103.833 -61.70999999999999 -104.03800299999999 -63.76699999999998 -113.05699999999999 C -63.76699999999998 -113.05699999999999 -60.54699999999998 -106.56299999999999 -52.00099999999998 -108.57499999999999 C -51.22699999999998 -110.73899999999999 -48.93999999999998 -112.94399999999999 -44.56599999999998 -114.27599999999998 C -43.95999999999998 -114.46199999999999 -43.36599999999998 -114.62599999999998 -42.78399999999998 -114.77399999999999 C -43.937999999999974 -115.14299999999999 -45.02399999999998 -115.62899999999999 -45.96999999999998 -116.27399999999999 C -47.64999999999998 -117.42199999999998 -48.20399999999998 -118.86399999999999 -47.94299999999998 -120.24499999999999 C -50.45099999999998 -122.14099999999999 -55.241999999999976 -127.04999999999998 -51.117999999999974 -134.839 C -51.117999999999974 -134.839 -52.91499999999997 -127.831 -45.15199999999997 -123.773 C -42.78999999999997 -125.185 -39.22599999999997 -125.699 -35.46999999999997 -124.11099999999999 C -26.80099999999997 -120.44699999999999 -12.141999999999971 -122.50699999999999 -7.276999999999969 -128.547 C -7.276999999999969 -128.547 -6.547999999999969 -125.459 -8.844999999999969 -122.352 C -8.844999999999969 -122.352 -2.7569999999999686 -125.188 -5.689999999999969 -134.166 C -5.689999999999969 -134.166 -0.21399999999996933 -130.213 -2.8469999999999693 -122.604 C -2.8469999999999693 -122.604 0.7230000000000305 -126.241 3.968000000000031 -126.307 C 3.968000000000031 -126.307 4.992000000000031 -122.336 9.42000000000003 -118.098 C 10.01600000000003 -119.457 9.95400000000003 -120.862 9.95400000000003 -120.862 C 13.331000000000031 -114.505 13.447000000000031 -108.091 13.046000000000031 -104.12599999999999 C 12.88700000000003 -100.63199999999999 12.24900000000003 -95.821 10.509000000000032 -89.63199999999999 z M -14.576999999999984 43.328 C -5.437999999999985 47.418000000000006 -0.38699999999998447 46.334 -0.38699999999998447 46.334 C -7.963999999999984 48.621 -15.417999999999985 44.652 -22.994999999999983 42.85 C -30.570999999999984 41.045 -33.69699999999998 45.133 -33.69699999999998 45.133 C -31.051999999999982 39.242000000000004 -23.71599999999998 39.242000000000004 -14.57699999999998 43.328 z" stroke-linecap="round" />
</g>
</svg>